<svg width="30" height="30" viewBox="0 0 30 30" fill="none" xmlns="http://www.w3.org/2000/svg">
<path fill-rule="evenodd" clip-rule="evenodd" d="M23.4839 13.1806C23.4751 13.2443 23.496 13.3085 23.5406 13.3548C24.2127 14.0469 24.5889 14.9734 24.5896 15.9381V17.6058C24.5868 18.4612 24.0603 19.2275 23.2629 19.537C23.1831 19.5685 23.1305 19.6455 23.1303 19.7313V21.3548C23.1303 22.391 22.2903 23.231 21.2541 23.231C20.218 23.231 19.378 22.391 19.378 21.3548V19.8956C19.378 19.7805 19.2846 19.6871 19.1695 19.6871H10.831C10.7158 19.6871 10.6225 19.7805 10.6225 19.8956V21.3548C10.6225 22.391 9.78251 23.231 8.74633 23.231C7.71015 23.231 6.87016 22.391 6.87016 21.3548V19.728C6.86998 19.6422 6.81743 19.5651 6.73758 19.5337C5.94015 19.2242 5.4137 18.4579 5.41092 17.6025V15.9348C5.41219 14.9722 5.78742 14.0477 6.4574 13.3565C6.50198 13.3101 6.52287 13.2459 6.51411 13.1822C6.50504 13.1188 6.46719 13.0631 6.41154 13.0313L5.74446 12.6452C5.14578 12.2998 4.94045 11.5345 5.28584 10.9358C5.63123 10.3371 6.39656 10.1318 6.99524 10.4772L7.88163 10.99C7.94099 11.0239 8.01317 11.0267 8.07497 10.9975C8.13678 10.9682 8.1804 10.9107 8.19182 10.8433L8.52536 8.85619C8.72269 7.64765 9.7682 6.76114 10.9927 6.76405H19.0044C20.2284 6.76101 21.2737 7.64665 21.4718 8.85452L21.8053 10.8416C21.8165 10.909 21.8599 10.9666 21.9216 10.9959C21.9833 11.0251 22.0554 11.0223 22.1147 10.9884L23.0027 10.4755C23.39 10.2521 23.8671 10.2523 24.2542 10.4759C24.6413 10.6996 24.8797 11.1128 24.8796 11.5599C24.8795 12.0071 24.6408 12.4201 24.2535 12.6436L23.5864 13.0296C23.5308 13.0614 23.4929 13.1171 23.4839 13.1806ZM19.0077 8.43342H10.9927C10.5859 8.4334 10.2385 8.72693 10.1706 9.12802L9.77114 11.5237C9.76108 11.5842 9.77817 11.646 9.81785 11.6928C9.85753 11.7395 9.91578 11.7664 9.9771 11.7663H20.0234C20.0847 11.7665 20.1429 11.7396 20.1826 11.693C20.2214 11.6466 20.2384 11.5859 20.2293 11.5262L19.8299 9.13052C19.7631 8.72844 19.4153 8.43361 19.0077 8.43342ZM22.5049 16.355C22.5049 17.0458 21.9449 17.6058 21.2541 17.6058C20.5634 17.6058 20.0034 17.0458 20.0034 16.355C20.0034 15.6642 20.5634 15.1043 21.2541 15.1043C21.9449 15.1043 22.5049 15.6642 22.5049 16.355ZM8.74633 15.1043C8.05555 15.1043 7.49555 15.6642 7.49555 16.355C7.49555 16.6868 7.62733 17.0049 7.8619 17.2395C8.09646 17.474 8.41461 17.6058 8.74633 17.6058C9.43712 17.6058 9.99711 17.0458 9.99711 16.355C9.99711 15.6642 9.43712 15.1043 8.74633 15.1043Z" fill="#515151"/>
<mask id="mask0_1087_6053" style="mask-type:alpha" maskUnits="userSpaceOnUse" x="5" y="6" width="20" height="18">
<path fill-rule="evenodd" clip-rule="evenodd" d="M23.4839 13.1806C23.4751 13.2443 23.496 13.3085 23.5406 13.3548C24.2127 14.0469 24.5889 14.9734 24.5896 15.9381V17.6058C24.5868 18.4612 24.0603 19.2275 23.2629 19.537C23.1831 19.5685 23.1305 19.6455 23.1303 19.7313V21.3548C23.1303 22.391 22.2903 23.231 21.2541 23.231C20.218 23.231 19.378 22.391 19.378 21.3548V19.8956C19.378 19.7805 19.2846 19.6871 19.1695 19.6871H10.831C10.7158 19.6871 10.6225 19.7805 10.6225 19.8956V21.3548C10.6225 22.391 9.78251 23.231 8.74633 23.231C7.71015 23.231 6.87016 22.391 6.87016 21.3548V19.728C6.86998 19.6422 6.81743 19.5651 6.73758 19.5337C5.94015 19.2242 5.4137 18.4579 5.41092 17.6025V15.9348C5.41219 14.9722 5.78742 14.0477 6.4574 13.3565C6.50198 13.3101 6.52287 13.2459 6.51411 13.1822C6.50504 13.1188 6.46719 13.0631 6.41154 13.0313L5.74446 12.6452C5.14578 12.2998 4.94045 11.5345 5.28584 10.9358C5.63123 10.3371 6.39656 10.1318 6.99524 10.4772L7.88163 10.99C7.94099 11.0239 8.01317 11.0267 8.07497 10.9975C8.13678 10.9682 8.1804 10.9107 8.19182 10.8433L8.52536 8.85619C8.72269 7.64765 9.7682 6.76114 10.9927 6.76405H19.0044C20.2284 6.76101 21.2737 7.64665 21.4718 8.85452L21.8053 10.8416C21.8165 10.909 21.8599 10.9666 21.9216 10.9959C21.9833 11.0251 22.0554 11.0223 22.1147 10.9884L23.0027 10.4755C23.39 10.2521 23.8671 10.2523 24.2542 10.4759C24.6413 10.6996 24.8797 11.1128 24.8796 11.5599C24.8795 12.0071 24.6408 12.4201 24.2535 12.6436L23.5864 13.0296C23.5308 13.0614 23.4929 13.1171 23.4839 13.1806ZM19.0077 8.43342H10.9927C10.5859 8.4334 10.2385 8.72693 10.1706 9.12802L9.77114 11.5237C9.76108 11.5842 9.77817 11.646 9.81785 11.6928C9.85753 11.7395 9.91578 11.7664 9.9771 11.7663H20.0234C20.0847 11.7665 20.1429 11.7396 20.1826 11.693C20.2214 11.6466 20.2384 11.5859 20.2293 11.5262L19.8299 9.13052C19.7631 8.72844 19.4153 8.43361 19.0077 8.43342ZM22.5049 16.355C22.5049 17.0458 21.9449 17.6058 21.2541 17.6058C20.5634 17.6058 20.0034 17.0458 20.0034 16.355C20.0034 15.6642 20.5634 15.1043 21.2541 15.1043C21.9449 15.1043 22.5049 15.6642 22.5049 16.355ZM8.74633 15.1043C8.05555 15.1043 7.49555 15.6642 7.49555 16.355C7.49555 16.6868 7.62733 17.0049 7.8619 17.2395C8.09646 17.474 8.41461 17.6058 8.74633 17.6058C9.43712 17.6058 9.99711 17.0458 9.99711 16.355C9.99711 15.6642 9.43712 15.1043 8.74633 15.1043Z" fill="white"/>
</mask>
<g mask="url(#mask0_1087_6053)">
</g>
</svg>
