<svg width="30" height="30" viewBox="0 0 30 30" fill="none" xmlns="http://www.w3.org/2000/svg">
<path fill-rule="evenodd" clip-rule="evenodd" d="M18.6382 18.5672C21.9494 18.5672 24.6344 16.1624 24.6344 13.1939C24.6344 10.8816 22.4581 8.34417 20.3918 7.33688C20.3393 7.31112 20.2999 7.26456 20.2833 7.20848C20.2666 7.1524 20.2742 7.09192 20.3042 7.04169L21.0947 5.72504C21.1811 5.58069 21.1833 5.40108 21.1005 5.25466C21.0177 5.10823 20.8627 5.01752 20.6945 5.01709H16.7378C16.569 5.01632 16.4129 5.10655 16.3293 5.2532C16.2457 5.39986 16.2476 5.58017 16.3342 5.72504L17.1206 7.03502C17.1504 7.08557 17.1576 7.1463 17.1405 7.20243C17.1234 7.25855 17.0835 7.30491 17.0305 7.33021C14.9192 8.33083 12.6394 10.8766 12.6394 13.1939C12.6419 16.1624 15.3261 18.5672 18.6382 18.5672ZM18.2888 13.1472C17.4499 12.5835 16.6578 12.0498 16.6578 11.2735C16.6187 10.9174 16.7434 10.5627 16.9968 10.3094C17.2502 10.0562 17.605 9.93169 17.9611 9.97102C17.9898 9.97057 18.0128 9.94718 18.0128 9.91849V9.57995C18.0128 9.23455 18.2928 8.95455 18.6382 8.95455C18.9836 8.95455 19.2636 9.23455 19.2636 9.57995V9.76256C19.2636 9.87769 19.3569 9.97102 19.472 9.97102H19.9932C20.3386 9.97102 20.6186 10.251 20.6186 10.5964C20.6186 10.9418 20.3386 11.2218 19.9932 11.2218H17.9344C17.9276 11.2218 17.9211 11.2245 17.9164 11.2294C17.9117 11.2343 17.9092 11.2409 17.9094 11.2477C17.9086 11.2686 17.9151 11.2892 17.9277 11.306C18.2533 11.6086 18.6084 11.8779 18.9876 12.1099C19.8264 12.6744 20.6186 13.208 20.6186 13.9835C20.6474 14.3371 20.5195 14.6855 20.2687 14.9364C20.018 15.1873 19.6697 15.3154 19.3161 15.2868C19.2874 15.2868 19.264 15.3099 19.2636 15.3385V15.6779C19.2636 16.0233 18.9836 16.3033 18.6382 16.3033C18.2928 16.3033 18.0128 16.0233 18.0128 15.6779V15.4953C18.0128 15.3802 17.9195 15.2868 17.8043 15.2868H17.2832C16.9378 15.2868 16.6578 15.0068 16.6578 14.6615C16.6578 14.3161 16.9378 14.0361 17.2832 14.0361H19.342C19.3559 14.0361 19.3674 14.025 19.3678 14.011C19.3681 13.9904 19.3617 13.9702 19.3495 13.9535C19.0241 13.6488 18.6687 13.3778 18.2888 13.1447V13.1472ZM19.1026 21.0037L22.0386 20.0281C22.737 19.7935 23.5075 19.9471 24.0624 20.4317C24.1741 20.5238 24.2314 20.6663 24.2145 20.8101C24.1977 20.9539 24.109 21.0792 23.979 21.143C18.9709 23.6767 17.4344 24.8526 15.8205 24.9708C14.4148 25.0738 12.9504 24.3744 9.08221 23.0709C8.84315 22.9913 8.58113 23.0219 8.36676 23.1543L5.68509 24.8303C5.62081 24.8707 5.53965 24.8729 5.47323 24.8362C5.40681 24.7994 5.36563 24.7294 5.36572 24.6535V20.1557C5.36595 20.0768 5.4104 20.0046 5.48079 19.9689L7.99737 18.7131C8.46049 18.4814 8.97124 18.3606 9.48913 18.3604H11.2027C12.7394 18.3604 13.6883 19.0456 14.1814 19.4017C14.3546 19.5267 14.4716 19.6112 14.5381 19.6112H17.4566C17.9171 19.6112 18.2905 19.9845 18.2905 20.4451C18.2905 20.9056 17.9171 21.2789 17.4566 21.2789H14.1212C13.8909 21.2789 13.7043 21.4656 13.7043 21.6958C13.7043 21.9261 13.8909 22.1128 14.1212 22.1128H17.4566C18.1135 22.1107 18.708 21.7232 18.9751 21.123C18.9987 21.0669 19.0451 21.0236 19.1026 21.0037Z" fill="#FF6200"/>
<mask id="mask0_1087_6040" style="mask-type:alpha" maskUnits="userSpaceOnUse" x="5" y="5" width="20" height="20">
<path fill-rule="evenodd" clip-rule="evenodd" d="M18.6382 18.5672C21.9494 18.5672 24.6344 16.1624 24.6344 13.1939C24.6344 10.8816 22.4581 8.34417 20.3918 7.33688C20.3393 7.31112 20.2999 7.26456 20.2833 7.20848C20.2666 7.1524 20.2742 7.09192 20.3042 7.04169L21.0947 5.72504C21.1811 5.58069 21.1833 5.40108 21.1005 5.25466C21.0177 5.10823 20.8627 5.01752 20.6945 5.01709H16.7378C16.569 5.01632 16.4129 5.10655 16.3293 5.2532C16.2457 5.39986 16.2476 5.58017 16.3342 5.72504L17.1206 7.03502C17.1504 7.08557 17.1576 7.1463 17.1405 7.20243C17.1234 7.25855 17.0835 7.30491 17.0305 7.33021C14.9192 8.33083 12.6394 10.8766 12.6394 13.1939C12.6419 16.1624 15.3261 18.5672 18.6382 18.5672ZM18.2888 13.1472C17.4499 12.5835 16.6578 12.0498 16.6578 11.2735C16.6187 10.9174 16.7434 10.5627 16.9968 10.3094C17.2502 10.0562 17.605 9.93169 17.9611 9.97102C17.9898 9.97057 18.0128 9.94718 18.0128 9.91849V9.57995C18.0128 9.23455 18.2928 8.95455 18.6382 8.95455C18.9836 8.95455 19.2636 9.23455 19.2636 9.57995V9.76256C19.2636 9.87769 19.3569 9.97102 19.472 9.97102H19.9932C20.3386 9.97102 20.6186 10.251 20.6186 10.5964C20.6186 10.9418 20.3386 11.2218 19.9932 11.2218H17.9344C17.9276 11.2218 17.9211 11.2245 17.9164 11.2294C17.9117 11.2343 17.9092 11.2409 17.9094 11.2477C17.9086 11.2686 17.9151 11.2892 17.9277 11.306C18.2533 11.6086 18.6084 11.8779 18.9876 12.1099C19.8264 12.6744 20.6186 13.208 20.6186 13.9835C20.6474 14.3371 20.5195 14.6855 20.2687 14.9364C20.018 15.1873 19.6697 15.3154 19.3161 15.2868C19.2874 15.2868 19.264 15.3099 19.2636 15.3385V15.6779C19.2636 16.0233 18.9836 16.3033 18.6382 16.3033C18.2928 16.3033 18.0128 16.0233 18.0128 15.6779V15.4953C18.0128 15.3802 17.9195 15.2868 17.8043 15.2868H17.2832C16.9378 15.2868 16.6578 15.0068 16.6578 14.6615C16.6578 14.3161 16.9378 14.0361 17.2832 14.0361H19.342C19.3559 14.0361 19.3674 14.025 19.3678 14.011C19.3681 13.9904 19.3617 13.9702 19.3495 13.9535C19.0241 13.6488 18.6687 13.3778 18.2888 13.1447V13.1472ZM19.1026 21.0037L22.0386 20.0281C22.737 19.7935 23.5075 19.9471 24.0624 20.4317C24.1741 20.5238 24.2314 20.6663 24.2145 20.8101C24.1977 20.9539 24.109 21.0792 23.979 21.143C18.9709 23.6767 17.4344 24.8526 15.8205 24.9708C14.4148 25.0738 12.9504 24.3744 9.08221 23.0709C8.84315 22.9913 8.58113 23.0219 8.36676 23.1543L5.68509 24.8303C5.62081 24.8707 5.53965 24.8729 5.47323 24.8362C5.40681 24.7994 5.36563 24.7294 5.36572 24.6535V20.1557C5.36595 20.0768 5.4104 20.0046 5.48079 19.9689L7.99737 18.7131C8.46049 18.4814 8.97124 18.3606 9.48913 18.3604H11.2027C12.7394 18.3604 13.6883 19.0456 14.1814 19.4017C14.3546 19.5267 14.4716 19.6112 14.5381 19.6112H17.4566C17.9171 19.6112 18.2905 19.9845 18.2905 20.4451C18.2905 20.9056 17.9171 21.2789 17.4566 21.2789H14.1212C13.8909 21.2789 13.7043 21.4656 13.7043 21.6958C13.7043 21.9261 13.8909 22.1128 14.1212 22.1128H17.4566C18.1135 22.1107 18.708 21.7232 18.9751 21.123C18.9987 21.0669 19.0451 21.0236 19.1026 21.0037Z" fill="white"/>
</mask>
<g mask="url(#mask0_1087_6040)">
</g>
</svg>
