<svg width="30" height="30" viewBox="0 0 30 30" fill="none" xmlns="http://www.w3.org/2000/svg">
<path fill-rule="evenodd" clip-rule="evenodd" d="M18.1599 18.2178C19.2754 18.6557 20.0076 19.7336 20.0035 20.932V23.3385C20.0035 23.5688 19.8169 23.7554 19.5866 23.7554H5.41109C5.18082 23.7554 4.99416 23.5688 4.99416 23.3385V20.9387C4.98996 19.7421 5.72028 18.6655 6.83364 18.227L10.2825 16.8545C10.362 16.8232 10.4143 16.7465 10.4142 16.661V15.3669C10.414 15.2986 10.3804 15.2347 10.3242 15.1959C9.6073 14.6525 9.18413 13.8065 9.17927 12.907C9.17446 12.847 9.14408 12.7921 9.09589 12.7561C8.78376 12.4824 8.61748 12.0786 8.64644 11.6646C8.64309 11.3952 8.707 11.1292 8.83239 10.8907C8.87817 10.8051 8.93634 10.7267 9.005 10.6581C9.05833 10.6046 9.07901 10.5267 9.0592 10.4538C8.8449 9.69666 8.54805 8.45922 9.14258 7.81799C9.37591 7.57792 9.69935 7.44691 10.034 7.45693C10.1033 7.45592 10.1676 7.42063 10.2057 7.36271C10.7394 6.54636 12.0469 6.24451 13.1242 6.24451C14.38 6.24451 15.9502 6.65476 16.2387 7.80882C16.3777 8.70037 16.2811 9.61278 15.9585 10.4555C15.9352 10.5287 15.9541 10.6088 16.0077 10.6639C16.2471 10.9406 16.3702 11.2992 16.3513 11.6646C16.3802 12.0786 16.2139 12.4824 15.9018 12.7561C15.8536 12.7921 15.8232 12.847 15.8184 12.907C15.8136 13.8065 15.3904 14.6525 14.6735 15.1959C14.617 15.2344 14.5833 15.2985 14.5835 15.3669V16.6602C14.5839 16.7455 14.636 16.822 14.7152 16.8536L18.1599 18.2178ZM21.3777 18.1186L23.7692 19.1818C24.522 19.5166 25.0069 20.2633 25.0067 21.0871V23.3385C25.0067 23.5688 24.82 23.7554 24.5897 23.7554H21.4494C21.3893 23.7555 21.332 23.7296 21.2923 23.6844C21.2525 23.6392 21.2341 23.5791 21.2418 23.5195C21.2502 23.4595 21.2544 23.3991 21.2543 23.3385V20.932C21.2607 19.2207 20.2155 17.6811 18.6227 17.0554L16.7432 16.3108C16.6902 16.2899 16.6482 16.2479 16.6273 16.1949C16.5051 15.8762 16.4285 15.5419 16.3996 15.2018C16.3947 15.1567 16.4046 15.1113 16.428 15.0725C16.7256 14.5756 16.9238 14.0257 17.0117 13.4532C17.017 13.4184 17.0313 13.3856 17.0534 13.3581C17.4201 12.8706 17.6132 12.2745 17.602 11.6646C17.6055 11.2334 17.5118 10.807 17.3277 10.4171C17.3061 10.3728 17.301 10.3222 17.3135 10.2745C17.3435 10.1661 17.3711 10.0502 17.3969 9.93098C17.4138 9.85795 17.468 9.79928 17.5395 9.77671C18.0727 9.61731 18.6304 9.556 19.1855 9.59577H19.2155C20.4905 9.50321 22.0306 9.94765 22.325 11.1476C22.4526 11.6279 22.4065 12.1379 22.1949 12.5876C22.1609 12.6606 22.1719 12.7466 22.2233 12.8086C22.4066 13.0513 22.5001 13.3502 22.4876 13.6541C22.507 14.0887 22.3444 14.5118 22.039 14.8215C21.9956 14.8584 21.9691 14.9114 21.9656 14.9683C21.9855 15.647 21.7542 16.3091 21.316 16.8278C21.2764 16.8667 21.2542 16.9199 21.2543 16.9754V17.9285C21.2542 18.0107 21.3026 18.0852 21.3777 18.1186Z" fill="#515151"/>
<mask id="mask0_1087_6047" style="mask-type:alpha" maskUnits="userSpaceOnUse" x="4" y="6" width="22" height="18">
<path fill-rule="evenodd" clip-rule="evenodd" d="M18.1599 18.2178C19.2754 18.6557 20.0076 19.7336 20.0035 20.932V23.3385C20.0035 23.5688 19.8169 23.7554 19.5866 23.7554H5.41109C5.18082 23.7554 4.99416 23.5688 4.99416 23.3385V20.9387C4.98996 19.7421 5.72028 18.6655 6.83364 18.227L10.2825 16.8545C10.362 16.8232 10.4143 16.7465 10.4142 16.661V15.3669C10.414 15.2986 10.3804 15.2347 10.3242 15.1959C9.6073 14.6525 9.18413 13.8065 9.17927 12.907C9.17446 12.847 9.14408 12.7921 9.09589 12.7561C8.78376 12.4824 8.61748 12.0786 8.64644 11.6646C8.64309 11.3952 8.707 11.1292 8.83239 10.8907C8.87817 10.8051 8.93634 10.7267 9.005 10.6581C9.05833 10.6046 9.07901 10.5267 9.0592 10.4538C8.8449 9.69666 8.54805 8.45922 9.14258 7.81799C9.37591 7.57792 9.69935 7.44691 10.034 7.45693C10.1033 7.45592 10.1676 7.42063 10.2057 7.36271C10.7394 6.54636 12.0469 6.24451 13.1242 6.24451C14.38 6.24451 15.9502 6.65476 16.2387 7.80882C16.3777 8.70037 16.2811 9.61278 15.9585 10.4555C15.9352 10.5287 15.9541 10.6088 16.0077 10.6639C16.2471 10.9406 16.3702 11.2992 16.3513 11.6646C16.3802 12.0786 16.2139 12.4824 15.9018 12.7561C15.8536 12.7921 15.8232 12.847 15.8184 12.907C15.8136 13.8065 15.3904 14.6525 14.6735 15.1959C14.617 15.2344 14.5833 15.2985 14.5835 15.3669V16.6602C14.5839 16.7455 14.636 16.822 14.7152 16.8536L18.1599 18.2178ZM21.3777 18.1186L23.7692 19.1818C24.522 19.5166 25.0069 20.2633 25.0067 21.0871V23.3385C25.0067 23.5688 24.82 23.7554 24.5897 23.7554H21.4494C21.3893 23.7555 21.332 23.7296 21.2923 23.6844C21.2525 23.6392 21.2341 23.5791 21.2418 23.5195C21.2502 23.4595 21.2544 23.3991 21.2543 23.3385V20.932C21.2607 19.2207 20.2155 17.6811 18.6227 17.0554L16.7432 16.3108C16.6902 16.2899 16.6482 16.2479 16.6273 16.1949C16.5051 15.8762 16.4285 15.5419 16.3996 15.2018C16.3947 15.1567 16.4046 15.1113 16.428 15.0725C16.7256 14.5756 16.9238 14.0257 17.0117 13.4532C17.017 13.4184 17.0313 13.3856 17.0534 13.3581C17.4201 12.8706 17.6132 12.2745 17.602 11.6646C17.6055 11.2334 17.5118 10.807 17.3277 10.4171C17.3061 10.3728 17.301 10.3222 17.3135 10.2745C17.3435 10.1661 17.3711 10.0502 17.3969 9.93098C17.4138 9.85795 17.468 9.79928 17.5395 9.77671C18.0727 9.61731 18.6304 9.556 19.1855 9.59577H19.2155C20.4905 9.50321 22.0306 9.94765 22.325 11.1476C22.4526 11.6279 22.4065 12.1379 22.1949 12.5876C22.1609 12.6606 22.1719 12.7466 22.2233 12.8086C22.4066 13.0513 22.5001 13.3502 22.4876 13.6541C22.507 14.0887 22.3444 14.5118 22.039 14.8215C21.9956 14.8584 21.9691 14.9114 21.9656 14.9683C21.9855 15.647 21.7542 16.3091 21.316 16.8278C21.2764 16.8667 21.2542 16.9199 21.2543 16.9754V17.9285C21.2542 18.0107 21.3026 18.0852 21.3777 18.1186Z" fill="white"/>
</mask>
<g mask="url(#mask0_1087_6047)">
</g>
</svg>
