<svg width="30" height="30" viewBox="0 0 30 30" fill="none" xmlns="http://www.w3.org/2000/svg">
<path fill-rule="evenodd" clip-rule="evenodd" d="M7.91214 23.9639H22.0877C23.6995 23.9639 25.0062 22.6573 25.0062 21.0454V12.7069C25.0062 11.0951 23.6995 9.78842 22.0877 9.78842H18.9607C18.9054 9.78864 18.8522 9.76675 18.8131 9.7276C18.7739 9.68846 18.752 9.63531 18.7522 9.57995V8.53763C18.7522 7.15606 17.6323 6.03607 16.2507 6.03607H13.7491C12.3675 6.03607 11.2476 7.15606 11.2476 8.53763V9.57995C11.2478 9.63531 11.2259 9.68846 11.1867 9.7276C11.1476 9.76675 11.0945 9.78864 11.0391 9.78842H7.91214C6.3003 9.78842 4.99365 11.0951 4.99365 12.7069V21.0454C4.99365 22.6573 6.3003 23.9639 7.91214 23.9639ZM12.9153 8.53763C12.9153 8.07711 13.2886 7.70378 13.7491 7.70378H16.2507C16.7112 7.70378 17.0845 8.07711 17.0845 8.53763V9.57995C17.0848 9.63531 17.0629 9.68846 17.0237 9.7276C16.9846 9.76675 16.9314 9.78864 16.8761 9.78842H13.1237C13.0684 9.78864 13.0152 9.76675 12.9761 9.7276C12.9369 9.68846 12.915 9.63531 12.9153 9.57995V8.53763ZM13.4464 17.183L15.9171 18.1003C15.9924 18.215 16.0283 18.3511 16.0197 18.488C16.0197 18.5764 16.0197 18.8216 15.4635 18.8216H13.1462C12.6857 18.8216 12.3124 19.1949 12.3124 19.6554C12.3124 20.1159 12.6857 20.4893 13.1462 20.4893H13.9601C14.0154 20.489 14.0686 20.5109 14.1077 20.5501C14.1469 20.5892 14.1688 20.6424 14.1685 20.6977V21.0446C14.1685 21.5051 14.5419 21.8785 15.0024 21.8785C15.4629 21.8785 15.8363 21.5051 15.8363 21.0446V20.6435C15.8362 20.5443 15.9058 20.4586 16.003 20.4384C16.9769 20.3051 17.699 19.4675 17.6874 18.4847C17.7382 17.6736 17.2891 16.9136 16.5542 16.5668L14.0835 15.6496C14.0085 15.5356 13.9723 15.4005 13.9801 15.2643C13.9801 15.1751 13.9801 14.9308 14.5363 14.9308H16.8536C17.3141 14.9308 17.6874 14.5575 17.6874 14.0969C17.6874 13.6364 17.3141 13.2631 16.8536 13.2631H16.0422C15.9271 13.2631 15.8338 13.1698 15.8338 13.0546V12.7069C15.8338 12.2464 15.4604 11.8731 14.9999 11.8731C14.5394 11.8731 14.166 12.2464 14.166 12.7069V13.108C14.1665 13.2074 14.0967 13.2932 13.9993 13.3131C13.0256 13.4459 12.303 14.2825 12.3132 15.2652C12.2622 16.0763 12.7114 16.8364 13.4464 17.183Z" fill="#FF6200"/>
<mask id="mask0_1087_6034" style="mask-type:alpha" maskUnits="userSpaceOnUse" x="4" y="6" width="22" height="18">
<path fill-rule="evenodd" clip-rule="evenodd" d="M7.91214 23.9639H22.0877C23.6995 23.9639 25.0062 22.6573 25.0062 21.0454V12.7069C25.0062 11.0951 23.6995 9.78842 22.0877 9.78842H18.9607C18.9054 9.78864 18.8522 9.76675 18.8131 9.7276C18.7739 9.68846 18.752 9.63531 18.7522 9.57995V8.53763C18.7522 7.15606 17.6323 6.03607 16.2507 6.03607H13.7491C12.3675 6.03607 11.2476 7.15606 11.2476 8.53763V9.57995C11.2478 9.63531 11.2259 9.68846 11.1867 9.7276C11.1476 9.76675 11.0945 9.78864 11.0391 9.78842H7.91214C6.3003 9.78842 4.99365 11.0951 4.99365 12.7069V21.0454C4.99365 22.6573 6.3003 23.9639 7.91214 23.9639ZM12.9153 8.53763C12.9153 8.07711 13.2886 7.70378 13.7491 7.70378H16.2507C16.7112 7.70378 17.0845 8.07711 17.0845 8.53763V9.57995C17.0848 9.63531 17.0629 9.68846 17.0237 9.7276C16.9846 9.76675 16.9314 9.78864 16.8761 9.78842H13.1237C13.0684 9.78864 13.0152 9.76675 12.9761 9.7276C12.9369 9.68846 12.915 9.63531 12.9153 9.57995V8.53763ZM13.4464 17.183L15.9171 18.1003C15.9924 18.215 16.0283 18.3511 16.0197 18.488C16.0197 18.5764 16.0197 18.8216 15.4635 18.8216H13.1462C12.6857 18.8216 12.3124 19.1949 12.3124 19.6554C12.3124 20.1159 12.6857 20.4893 13.1462 20.4893H13.9601C14.0154 20.489 14.0686 20.5109 14.1077 20.5501C14.1469 20.5892 14.1688 20.6424 14.1685 20.6977V21.0446C14.1685 21.5051 14.5419 21.8785 15.0024 21.8785C15.4629 21.8785 15.8363 21.5051 15.8363 21.0446V20.6435C15.8362 20.5443 15.9058 20.4586 16.003 20.4384C16.9769 20.3051 17.699 19.4675 17.6874 18.4847C17.7382 17.6736 17.2891 16.9136 16.5542 16.5668L14.0835 15.6496C14.0085 15.5356 13.9723 15.4005 13.9801 15.2643C13.9801 15.1751 13.9801 14.9308 14.5363 14.9308H16.8536C17.3141 14.9308 17.6874 14.5575 17.6874 14.0969C17.6874 13.6364 17.3141 13.2631 16.8536 13.2631H16.0422C15.9271 13.2631 15.8338 13.1698 15.8338 13.0546V12.7069C15.8338 12.2464 15.4604 11.8731 14.9999 11.8731C14.5394 11.8731 14.166 12.2464 14.166 12.7069V13.108C14.1665 13.2074 14.0967 13.2932 13.9993 13.3131C13.0256 13.4459 12.303 14.2825 12.3132 15.2652C12.2622 16.0763 12.7114 16.8364 13.4464 17.183Z" fill="white"/>
</mask>
<g mask="url(#mask0_1087_6034)">
</g>
</svg>
