<svg width="30" height="30" viewBox="0 0 30 30" fill="none" xmlns="http://www.w3.org/2000/svg">
<path fill-rule="evenodd" clip-rule="evenodd" d="M22.9726 9.87516L18.4573 5.35984C18.2223 5.12635 17.9047 4.99484 17.5734 4.99377H7.9124C7.22161 4.99377 6.66162 5.55377 6.66162 6.24456V23.7555C6.66162 24.4463 7.22161 25.0063 7.9124 25.0063H22.9218C23.152 25.0063 23.3387 24.8196 23.3387 24.5893V10.759C23.3396 10.4274 23.2078 10.1091 22.9726 9.87516ZM13.1799 14.3188L10.3698 13.2681C9.5844 12.8936 9.10644 12.0784 9.16318 11.2102C9.15566 10.1175 9.98408 9.20001 11.0719 9.09634C11.1734 9.08066 11.2482 8.9931 11.2478 8.89038V8.32919C11.2478 7.86867 11.6211 7.49534 12.0817 7.49534C12.5422 7.49534 12.9155 7.86867 12.9155 8.32919V8.85035C12.9155 8.96548 13.0089 9.05881 13.124 9.05881H14.1663C14.6268 9.05881 15.0002 9.43214 15.0002 9.89267C15.0002 10.3532 14.6268 10.7265 14.1663 10.7265H11.5605C10.8309 10.7265 10.8309 11.0901 10.8309 11.2102C10.8176 11.3932 10.8719 11.5747 10.9835 11.7205L13.7936 12.7711C14.5804 13.1462 15.0587 13.9635 15.0002 14.8333C15.0055 15.9244 14.1777 16.8394 13.0915 16.9429C12.9899 16.9586 12.9151 17.0461 12.9155 17.1489V17.7101C12.9155 18.1706 12.5422 18.5439 12.0817 18.5439C11.6211 18.5439 11.2478 18.1706 11.2478 17.7101V17.1889C11.2478 17.0738 11.1545 16.9804 11.0394 16.9804H9.99704C9.53651 16.9804 9.16318 16.6071 9.16318 16.1466C9.16318 15.686 9.53651 15.3127 9.99704 15.3127H12.6028C13.3325 15.3127 13.3325 14.9492 13.3325 14.8291C13.3457 14.646 13.2914 14.4645 13.1799 14.3188ZM21.0456 17.9185C21.0456 17.5731 20.7656 17.2931 20.4202 17.2931H16.2509C15.9056 17.2931 15.6256 17.5731 15.6256 17.9185C15.6256 18.2639 15.9056 18.5439 16.2509 18.5439H20.4202C20.7656 18.5439 21.0456 18.2639 21.0456 17.9185ZM17.2933 14.1662C17.2933 13.8208 17.5733 13.5408 17.9187 13.5408H20.4202C20.7656 13.5408 21.0456 13.8208 21.0456 14.1662C21.0456 14.5116 20.7656 14.7916 20.4202 14.7916H17.9187C17.5733 14.7916 17.2933 14.5116 17.2933 14.1662ZM21.0456 21.6709C21.0456 21.3255 20.7656 21.0455 20.4202 21.0455H12.0817C11.7363 21.0455 11.4563 21.3255 11.4563 21.6709C11.4563 22.0163 11.7363 22.2962 12.0817 22.2962H20.4202C20.7656 22.2962 21.0456 22.0163 21.0456 21.6709Z" fill="#515151"/>
<mask id="mask0_1087_6037" style="mask-type:alpha" maskUnits="userSpaceOnUse" x="6" y="4" width="18" height="22">
<path fill-rule="evenodd" clip-rule="evenodd" d="M22.9726 9.87516L18.4573 5.35984C18.2223 5.12635 17.9047 4.99484 17.5734 4.99377H7.9124C7.22161 4.99377 6.66162 5.55377 6.66162 6.24456V23.7555C6.66162 24.4463 7.22161 25.0063 7.9124 25.0063H22.9218C23.152 25.0063 23.3387 24.8196 23.3387 24.5893V10.759C23.3396 10.4274 23.2078 10.1091 22.9726 9.87516ZM13.1799 14.3188L10.3698 13.2681C9.5844 12.8936 9.10644 12.0784 9.16318 11.2102C9.15566 10.1175 9.98408 9.20001 11.0719 9.09634C11.1734 9.08066 11.2482 8.9931 11.2478 8.89038V8.32919C11.2478 7.86867 11.6211 7.49534 12.0817 7.49534C12.5422 7.49534 12.9155 7.86867 12.9155 8.32919V8.85035C12.9155 8.96548 13.0089 9.05881 13.124 9.05881H14.1663C14.6268 9.05881 15.0002 9.43214 15.0002 9.89267C15.0002 10.3532 14.6268 10.7265 14.1663 10.7265H11.5605C10.8309 10.7265 10.8309 11.0901 10.8309 11.2102C10.8176 11.3932 10.8719 11.5747 10.9835 11.7205L13.7936 12.7711C14.5804 13.1462 15.0587 13.9635 15.0002 14.8333C15.0055 15.9244 14.1777 16.8394 13.0915 16.9429C12.9899 16.9586 12.9151 17.0461 12.9155 17.1489V17.7101C12.9155 18.1706 12.5422 18.5439 12.0817 18.5439C11.6211 18.5439 11.2478 18.1706 11.2478 17.7101V17.1889C11.2478 17.0738 11.1545 16.9804 11.0394 16.9804H9.99704C9.53651 16.9804 9.16318 16.6071 9.16318 16.1466C9.16318 15.686 9.53651 15.3127 9.99704 15.3127H12.6028C13.3325 15.3127 13.3325 14.9492 13.3325 14.8291C13.3457 14.646 13.2914 14.4645 13.1799 14.3188ZM21.0456 17.9185C21.0456 17.5731 20.7656 17.2931 20.4202 17.2931H16.2509C15.9056 17.2931 15.6256 17.5731 15.6256 17.9185C15.6256 18.2639 15.9056 18.5439 16.2509 18.5439H20.4202C20.7656 18.5439 21.0456 18.2639 21.0456 17.9185ZM17.2933 14.1662C17.2933 13.8208 17.5733 13.5408 17.9187 13.5408H20.4202C20.7656 13.5408 21.0456 13.8208 21.0456 14.1662C21.0456 14.5116 20.7656 14.7916 20.4202 14.7916H17.9187C17.5733 14.7916 17.2933 14.5116 17.2933 14.1662ZM21.0456 21.6709C21.0456 21.3255 20.7656 21.0455 20.4202 21.0455H12.0817C11.7363 21.0455 11.4563 21.3255 11.4563 21.6709C11.4563 22.0163 11.7363 22.2962 12.0817 22.2962H20.4202C20.7656 22.2962 21.0456 22.0163 21.0456 21.6709Z" fill="white"/>
</mask>
<g mask="url(#mask0_1087_6037)">
</g>
</svg>
