<svg width="30" height="30" viewBox="0 0 30 30" fill="none" xmlns="http://www.w3.org/2000/svg">
<path fill-rule="evenodd" clip-rule="evenodd" d="M20.0611 8.50177L20.317 8.88535C20.4333 9.0589 20.6285 9.16304 20.8374 9.16302H20.8582C21.0749 9.15582 21.2725 9.03686 21.3802 8.84866L23.0479 5.93017C23.1652 5.7245 23.1565 5.47025 23.0254 5.27309C22.895 5.07482 22.6628 4.96857 22.4275 4.99959L19.0921 5.41651C18.8769 5.44299 18.6908 5.57925 18.6005 5.77644C18.5102 5.97364 18.5287 6.20355 18.6493 6.38378L18.9053 6.76736C18.9688 6.86344 18.9427 6.99273 18.847 7.0567L7.03291 14.9325C6.64976 15.188 6.54635 15.7059 6.80194 16.089C7.05753 16.4722 7.57534 16.5756 7.95849 16.32L19.7725 8.44424C19.8184 8.4135 19.8746 8.40229 19.9287 8.41309C19.9829 8.42389 20.0305 8.4558 20.0611 8.50177ZM23.9643 22.1837H21.0458C20.9905 22.1839 20.9373 22.162 20.8982 22.1228C20.859 22.0837 20.8371 22.0305 20.8374 21.9752V11.9689C20.8374 11.5084 21.2107 11.1351 21.6712 11.1351H23.3389C23.7995 11.1351 24.1728 11.5084 24.1728 11.9689V21.9752C24.173 22.0305 24.1511 22.0837 24.112 22.1228C24.0728 22.162 24.0197 22.1839 23.9643 22.1837ZM16.6681 14.4705C16.2076 14.4705 15.8342 14.8438 15.8342 15.3044V21.9752C15.834 22.0305 15.8559 22.0837 15.8951 22.1228C15.9342 22.162 15.9874 22.1839 16.0427 22.1837H18.9612C19.0166 22.1839 19.0697 22.162 19.1088 22.1228C19.148 22.0837 19.1699 22.0305 19.1697 21.9752V15.3044C19.1697 14.8438 18.7963 14.4705 18.3358 14.4705H16.6681ZM10.8311 18.2228C10.8311 17.7623 11.2044 17.389 11.665 17.389H13.3327C13.7932 17.389 14.1665 17.7623 14.1665 18.2228V21.9752C14.1668 22.0305 14.1449 22.0837 14.1057 22.1228C14.0666 22.162 14.0134 22.1839 13.9581 22.1837H11.0396C10.9842 22.1839 10.9311 22.162 10.8919 22.1228C10.8528 22.0837 10.8309 22.0305 10.8311 21.9752V18.2228ZM5.828 20.7244C5.828 20.2639 6.20132 19.8906 6.66185 19.8906H8.32956C8.79008 19.8906 9.16341 20.2639 9.16341 20.7244V21.9752C9.16363 22.0305 9.14174 22.0837 9.1026 22.1228C9.06346 22.162 9.0103 22.1839 8.95495 22.1837H6.03646C5.9811 22.1839 5.92795 22.162 5.88881 22.1228C5.84966 22.0837 5.82777 22.0305 5.828 21.9752V20.7244ZM24.1728 25.0063H5.82799C5.36747 25.0063 4.99414 24.6329 4.99414 24.1724C4.99414 23.7119 5.36747 23.3385 5.82799 23.3385H24.1728C24.6333 23.3385 25.0066 23.7119 25.0066 24.1724C25.0066 24.6329 24.6333 25.0063 24.1728 25.0063Z" fill="#FF6200"/>
<mask id="mask0_1087_6056" style="mask-type:alpha" maskUnits="userSpaceOnUse" x="4" y="4" width="22" height="22">
<path fill-rule="evenodd" clip-rule="evenodd" d="M20.0611 8.50177L20.317 8.88535C20.4333 9.0589 20.6285 9.16304 20.8374 9.16302H20.8582C21.0749 9.15582 21.2725 9.03686 21.3802 8.84866L23.0479 5.93017C23.1652 5.7245 23.1565 5.47025 23.0254 5.27309C22.895 5.07482 22.6628 4.96857 22.4275 4.99959L19.0921 5.41651C18.8769 5.44299 18.6908 5.57925 18.6005 5.77644C18.5102 5.97364 18.5287 6.20355 18.6493 6.38378L18.9053 6.76736C18.9688 6.86344 18.9427 6.99273 18.847 7.0567L7.03291 14.9325C6.64976 15.188 6.54635 15.7059 6.80194 16.089C7.05753 16.4722 7.57534 16.5756 7.95849 16.32L19.7725 8.44424C19.8184 8.4135 19.8746 8.40229 19.9287 8.41309C19.9829 8.42389 20.0305 8.4558 20.0611 8.50177ZM23.9643 22.1837H21.0458C20.9905 22.1839 20.9373 22.162 20.8982 22.1228C20.859 22.0837 20.8371 22.0305 20.8374 21.9752V11.9689C20.8374 11.5084 21.2107 11.1351 21.6712 11.1351H23.3389C23.7995 11.1351 24.1728 11.5084 24.1728 11.9689V21.9752C24.173 22.0305 24.1511 22.0837 24.112 22.1228C24.0728 22.162 24.0197 22.1839 23.9643 22.1837ZM16.6681 14.4705C16.2076 14.4705 15.8342 14.8438 15.8342 15.3044V21.9752C15.834 22.0305 15.8559 22.0837 15.8951 22.1228C15.9342 22.162 15.9874 22.1839 16.0427 22.1837H18.9612C19.0166 22.1839 19.0697 22.162 19.1088 22.1228C19.148 22.0837 19.1699 22.0305 19.1697 21.9752V15.3044C19.1697 14.8438 18.7963 14.4705 18.3358 14.4705H16.6681ZM10.8311 18.2228C10.8311 17.7623 11.2044 17.389 11.665 17.389H13.3327C13.7932 17.389 14.1665 17.7623 14.1665 18.2228V21.9752C14.1668 22.0305 14.1449 22.0837 14.1057 22.1228C14.0666 22.162 14.0134 22.1839 13.9581 22.1837H11.0396C10.9842 22.1839 10.9311 22.162 10.8919 22.1228C10.8528 22.0837 10.8309 22.0305 10.8311 21.9752V18.2228ZM5.828 20.7244C5.828 20.2639 6.20132 19.8906 6.66185 19.8906H8.32956C8.79008 19.8906 9.16341 20.2639 9.16341 20.7244V21.9752C9.16363 22.0305 9.14174 22.0837 9.1026 22.1228C9.06346 22.162 9.0103 22.1839 8.95495 22.1837H6.03646C5.9811 22.1839 5.92795 22.162 5.88881 22.1228C5.84966 22.0837 5.82777 22.0305 5.828 21.9752V20.7244ZM24.1728 25.0063H5.82799C5.36747 25.0063 4.99414 24.6329 4.99414 24.1724C4.99414 23.7119 5.36747 23.3385 5.82799 23.3385H24.1728C24.6333 23.3385 25.0066 23.7119 25.0066 24.1724C25.0066 24.6329 24.6333 25.0063 24.1728 25.0063Z" fill="white"/>
</mask>
<g mask="url(#mask0_1087_6056)">
</g>
</svg>
