<svg width="30" height="30" viewBox="0 0 30 30" fill="none" xmlns="http://www.w3.org/2000/svg">
<path fill-rule="evenodd" clip-rule="evenodd" d="M22.9221 7.49534H20.629C20.5138 7.49534 20.4205 7.402 20.4205 7.28687V5.82763C20.4205 5.3671 20.0472 4.99377 19.5867 4.99377C19.1261 4.99377 18.7528 5.3671 18.7528 5.82763V9.78844C18.7528 10.1338 18.4728 10.4138 18.1274 10.4138C17.782 10.4138 17.502 10.1338 17.502 9.78844V7.91226C17.502 7.682 17.3154 7.49534 17.0851 7.49534H11.8735C11.7587 7.49534 11.6655 7.40251 11.665 7.28771V5.82763C11.665 5.3671 11.2917 4.99377 10.8312 4.99377C10.3707 4.99377 9.99733 5.3671 9.99733 5.82763V9.78844C9.99733 10.1338 9.71733 10.4138 9.37194 10.4138C9.02655 10.4138 8.74655 10.1338 8.74655 9.78844V7.91226C8.74655 7.682 8.55988 7.49534 8.32962 7.49534H7.07884C6.15779 7.49534 5.41113 8.242 5.41113 9.16304V23.3386C5.41113 24.2596 6.15779 25.0063 7.07884 25.0063H22.9221C23.8431 25.0063 24.5898 24.2596 24.5898 23.3386V9.16304C24.5898 8.242 23.8431 7.49534 22.9221 7.49534ZM10.4143 13.7492C9.95373 13.7492 9.5804 14.1226 9.5804 14.5831C9.5804 15.0436 9.95373 15.417 10.4143 15.417H11.2481C11.7086 15.417 12.082 15.0436 12.082 14.5831C12.082 14.1226 11.7086 13.7492 11.2481 13.7492H10.4143ZM15.4174 13.7492H14.5835C14.123 13.7492 13.7497 14.1226 13.7497 14.5831C13.7497 15.0436 14.123 15.417 14.5835 15.417H15.4174C15.8779 15.417 16.2512 15.0436 16.2512 14.5831C16.2512 14.1226 15.8779 13.7492 15.4174 13.7492ZM18.7528 13.7492H19.5867C20.0472 13.7492 20.4205 14.1226 20.4205 14.5831C20.4205 15.0436 20.0472 15.417 19.5867 15.417H18.7528C18.2923 15.417 17.9189 15.0436 17.9189 14.5831C17.9189 14.1226 18.2923 13.7492 18.7528 13.7492ZM10.4143 17.0847C9.95373 17.0847 9.5804 17.458 9.5804 17.9185C9.5804 18.379 9.95373 18.7524 10.4143 18.7524H11.2481C11.7086 18.7524 12.082 18.379 12.082 17.9185C12.082 17.458 11.7086 17.0847 11.2481 17.0847H10.4143ZM14.5835 17.0847H15.4174C15.8779 17.0847 16.2512 17.458 16.2512 17.9185C16.2512 18.379 15.8779 18.7524 15.4174 18.7524H14.5835C14.123 18.7524 13.7497 18.379 13.7497 17.9185C13.7497 17.458 14.123 17.0847 14.5835 17.0847ZM19.5867 17.0847H18.7528C18.2923 17.0847 17.9189 17.458 17.9189 17.9185C17.9189 18.379 18.2923 18.7524 18.7528 18.7524H19.5867C20.0472 18.7524 20.4205 18.379 20.4205 17.9185C20.4205 17.458 20.0472 17.0847 19.5867 17.0847ZM11.2481 20.4201C11.7086 20.4201 12.082 20.7934 12.082 21.2539C12.082 21.7145 11.7086 22.0878 11.2481 22.0878H10.4143C9.95373 22.0878 9.5804 21.7145 9.5804 21.2539C9.5804 20.7934 9.95373 20.4201 10.4143 20.4201H11.2481ZM15.4174 20.4201H14.5835C14.123 20.4201 13.7497 20.7934 13.7497 21.2539C13.7497 21.7145 14.123 22.0878 14.5835 22.0878H15.4174C15.8779 22.0878 16.2512 21.7145 16.2512 21.2539C16.2512 20.7934 15.8779 20.4201 15.4174 20.4201ZM18.7528 20.4201H19.5867C20.0472 20.4201 20.4205 20.7934 20.4205 21.2539C20.4205 21.7145 20.0472 22.0878 19.5867 22.0878H18.7528C18.2923 22.0878 17.9189 21.7145 17.9189 21.2539C17.9189 20.7934 18.2923 20.4201 18.7528 20.4201ZM22.5051 23.3386C22.7354 23.3386 22.9221 23.1519 22.9221 22.9216V12.9154C22.9221 12.6851 22.7354 12.4985 22.5051 12.4985H7.49577C7.26551 12.4985 7.07884 12.6851 7.07884 12.9154V22.9216C7.07884 23.1519 7.26551 23.3386 7.49577 23.3386H22.5051Z" fill="#515151"/>
<mask id="mask0_1087_6050" style="mask-type:alpha" maskUnits="userSpaceOnUse" x="5" y="4" width="20" height="22">
<path fill-rule="evenodd" clip-rule="evenodd" d="M22.9221 7.49534H20.629C20.5138 7.49534 20.4205 7.402 20.4205 7.28687V5.82763C20.4205 5.3671 20.0472 4.99377 19.5867 4.99377C19.1261 4.99377 18.7528 5.3671 18.7528 5.82763V9.78844C18.7528 10.1338 18.4728 10.4138 18.1274 10.4138C17.782 10.4138 17.502 10.1338 17.502 9.78844V7.91226C17.502 7.682 17.3154 7.49534 17.0851 7.49534H11.8735C11.7587 7.49534 11.6655 7.40251 11.665 7.28771V5.82763C11.665 5.3671 11.2917 4.99377 10.8312 4.99377C10.3707 4.99377 9.99733 5.3671 9.99733 5.82763V9.78844C9.99733 10.1338 9.71733 10.4138 9.37194 10.4138C9.02655 10.4138 8.74655 10.1338 8.74655 9.78844V7.91226C8.74655 7.682 8.55988 7.49534 8.32962 7.49534H7.07884C6.15779 7.49534 5.41113 8.242 5.41113 9.16304V23.3386C5.41113 24.2596 6.15779 25.0063 7.07884 25.0063H22.9221C23.8431 25.0063 24.5898 24.2596 24.5898 23.3386V9.16304C24.5898 8.242 23.8431 7.49534 22.9221 7.49534ZM10.4143 13.7492C9.95373 13.7492 9.5804 14.1226 9.5804 14.5831C9.5804 15.0436 9.95373 15.417 10.4143 15.417H11.2481C11.7086 15.417 12.082 15.0436 12.082 14.5831C12.082 14.1226 11.7086 13.7492 11.2481 13.7492H10.4143ZM15.4174 13.7492H14.5835C14.123 13.7492 13.7497 14.1226 13.7497 14.5831C13.7497 15.0436 14.123 15.417 14.5835 15.417H15.4174C15.8779 15.417 16.2512 15.0436 16.2512 14.5831C16.2512 14.1226 15.8779 13.7492 15.4174 13.7492ZM18.7528 13.7492H19.5867C20.0472 13.7492 20.4205 14.1226 20.4205 14.5831C20.4205 15.0436 20.0472 15.417 19.5867 15.417H18.7528C18.2923 15.417 17.9189 15.0436 17.9189 14.5831C17.9189 14.1226 18.2923 13.7492 18.7528 13.7492ZM10.4143 17.0847C9.95373 17.0847 9.5804 17.458 9.5804 17.9185C9.5804 18.379 9.95373 18.7524 10.4143 18.7524H11.2481C11.7086 18.7524 12.082 18.379 12.082 17.9185C12.082 17.458 11.7086 17.0847 11.2481 17.0847H10.4143ZM14.5835 17.0847H15.4174C15.8779 17.0847 16.2512 17.458 16.2512 17.9185C16.2512 18.379 15.8779 18.7524 15.4174 18.7524H14.5835C14.123 18.7524 13.7497 18.379 13.7497 17.9185C13.7497 17.458 14.123 17.0847 14.5835 17.0847ZM19.5867 17.0847H18.7528C18.2923 17.0847 17.9189 17.458 17.9189 17.9185C17.9189 18.379 18.2923 18.7524 18.7528 18.7524H19.5867C20.0472 18.7524 20.4205 18.379 20.4205 17.9185C20.4205 17.458 20.0472 17.0847 19.5867 17.0847ZM11.2481 20.4201C11.7086 20.4201 12.082 20.7934 12.082 21.2539C12.082 21.7145 11.7086 22.0878 11.2481 22.0878H10.4143C9.95373 22.0878 9.5804 21.7145 9.5804 21.2539C9.5804 20.7934 9.95373 20.4201 10.4143 20.4201H11.2481ZM15.4174 20.4201H14.5835C14.123 20.4201 13.7497 20.7934 13.7497 21.2539C13.7497 21.7145 14.123 22.0878 14.5835 22.0878H15.4174C15.8779 22.0878 16.2512 21.7145 16.2512 21.2539C16.2512 20.7934 15.8779 20.4201 15.4174 20.4201ZM18.7528 20.4201H19.5867C20.0472 20.4201 20.4205 20.7934 20.4205 21.2539C20.4205 21.7145 20.0472 22.0878 19.5867 22.0878H18.7528C18.2923 22.0878 17.9189 21.7145 17.9189 21.2539C17.9189 20.7934 18.2923 20.4201 18.7528 20.4201ZM22.5051 23.3386C22.7354 23.3386 22.9221 23.1519 22.9221 22.9216V12.9154C22.9221 12.6851 22.7354 12.4985 22.5051 12.4985H7.49577C7.26551 12.4985 7.07884 12.6851 7.07884 12.9154V22.9216C7.07884 23.1519 7.26551 23.3386 7.49577 23.3386H22.5051Z" fill="white"/>
</mask>
<g mask="url(#mask0_1087_6050)">
</g>
</svg>
