<svg width="30" height="30" viewBox="0 0 30 30" fill="none" xmlns="http://www.w3.org/2000/svg">
<path fill-rule="evenodd" clip-rule="evenodd" d="M14.9999 8.74609C15.4604 8.74609 15.8338 8.37276 15.8338 7.91223V5.8276C15.8338 5.36707 15.4604 4.99374 14.9999 4.99374C14.5394 4.99374 14.166 5.36707 14.166 5.8276V7.91223C14.166 8.37276 14.5394 8.74609 14.9999 8.74609ZM16.5634 22.9258V22.9216H13.4364C13.2919 22.9216 13.1576 22.9965 13.0817 23.1195C13.0057 23.2425 12.9989 23.3961 13.0637 23.5253L13.3439 24.0848C13.6245 24.6504 14.2018 25.0076 14.8331 25.0062H15.1667C15.7973 25.0085 16.3747 24.6531 16.6568 24.089L16.9369 23.5295C17.0018 23.4001 16.9949 23.2464 16.9187 23.1233C16.8426 23.0003 16.7081 22.9255 16.5634 22.9258ZM21.4856 8.16906C21.8112 7.84354 22.3391 7.84354 22.6647 8.16906C22.9902 8.49468 22.9902 9.02251 22.6647 9.34813L21.1913 10.8224C20.9819 11.0392 20.6719 11.1261 20.3803 11.0498C20.0888 10.9735 19.8611 10.7458 19.7848 10.4542C19.7085 10.1627 19.7954 9.85267 20.0122 9.64331L21.4856 8.16906ZM24.1723 15H22.5046C22.0441 15 21.6707 15.3733 21.6707 15.8338C21.6707 16.2944 22.0441 16.6677 22.5046 16.6677H24.1723C24.6328 16.6677 25.0062 16.2944 25.0062 15.8338C25.0062 15.3733 24.6328 15 24.1723 15ZM8.51418 8.16906L9.98844 9.64332C10.3044 9.9705 10.2999 10.4906 9.97828 10.8122C9.65664 11.1339 9.13656 11.1384 8.80937 10.8224L7.33512 9.34813C7.01911 9.02094 7.02363 8.50086 7.34527 8.17922C7.66692 7.85757 8.187 7.85305 8.51418 8.16906ZM7.49522 15H5.82751C5.36698 15 4.99365 15.3733 4.99365 15.8338C4.99365 16.2944 5.36698 16.6677 5.82751 16.6677H7.49522C7.95574 16.6677 8.32907 16.2944 8.32907 15.8338C8.32907 15.3733 7.95574 15 7.49522 15ZM9.83699 13.7927C10.5457 11.5366 12.6352 10.0004 14.9999 9.99687C17.3672 9.99511 19.4614 11.5311 20.1709 13.7896C20.8803 16.0481 20.0407 18.5057 18.0977 19.858C17.9853 19.936 17.9183 20.064 17.9184 20.2007V20.837C17.9184 21.2975 17.5451 21.6708 17.0845 21.6708H12.9153C12.4547 21.6708 12.0814 21.2975 12.0814 20.837V20.2016C12.0815 20.0649 12.0145 19.9368 11.9021 19.8589C9.96413 18.5038 9.12834 16.0487 9.83699 13.7927Z" fill="#FF6200"/>
<mask id="mask0_1087_6043" style="mask-type:alpha" maskUnits="userSpaceOnUse" x="4" y="4" width="22" height="22">
<path fill-rule="evenodd" clip-rule="evenodd" d="M14.9999 8.74609C15.4604 8.74609 15.8338 8.37276 15.8338 7.91223V5.8276C15.8338 5.36707 15.4604 4.99374 14.9999 4.99374C14.5394 4.99374 14.166 5.36707 14.166 5.8276V7.91223C14.166 8.37276 14.5394 8.74609 14.9999 8.74609ZM16.5634 22.9258V22.9216H13.4364C13.2919 22.9216 13.1576 22.9965 13.0817 23.1195C13.0057 23.2425 12.9989 23.3961 13.0637 23.5253L13.3439 24.0848C13.6245 24.6504 14.2018 25.0076 14.8331 25.0062H15.1667C15.7973 25.0085 16.3747 24.6531 16.6568 24.089L16.9369 23.5295C17.0018 23.4001 16.9949 23.2464 16.9187 23.1233C16.8426 23.0003 16.7081 22.9255 16.5634 22.9258ZM21.4856 8.16906C21.8112 7.84354 22.3391 7.84354 22.6647 8.16906C22.9902 8.49468 22.9902 9.02251 22.6647 9.34813L21.1913 10.8224C20.9819 11.0392 20.6719 11.1261 20.3803 11.0498C20.0888 10.9735 19.8611 10.7458 19.7848 10.4542C19.7085 10.1627 19.7954 9.85267 20.0122 9.64331L21.4856 8.16906ZM24.1723 15H22.5046C22.0441 15 21.6707 15.3733 21.6707 15.8338C21.6707 16.2944 22.0441 16.6677 22.5046 16.6677H24.1723C24.6328 16.6677 25.0062 16.2944 25.0062 15.8338C25.0062 15.3733 24.6328 15 24.1723 15ZM8.51418 8.16906L9.98844 9.64332C10.3044 9.9705 10.2999 10.4906 9.97828 10.8122C9.65664 11.1339 9.13656 11.1384 8.80937 10.8224L7.33512 9.34813C7.01911 9.02094 7.02363 8.50086 7.34527 8.17922C7.66692 7.85757 8.187 7.85305 8.51418 8.16906ZM7.49522 15H5.82751C5.36698 15 4.99365 15.3733 4.99365 15.8338C4.99365 16.2944 5.36698 16.6677 5.82751 16.6677H7.49522C7.95574 16.6677 8.32907 16.2944 8.32907 15.8338C8.32907 15.3733 7.95574 15 7.49522 15ZM9.83699 13.7927C10.5457 11.5366 12.6352 10.0004 14.9999 9.99687C17.3672 9.99511 19.4614 11.5311 20.1709 13.7896C20.8803 16.0481 20.0407 18.5057 18.0977 19.858C17.9853 19.936 17.9183 20.064 17.9184 20.2007V20.837C17.9184 21.2975 17.5451 21.6708 17.0845 21.6708H12.9153C12.4547 21.6708 12.0814 21.2975 12.0814 20.837V20.2016C12.0815 20.0649 12.0145 19.9368 11.9021 19.8589C9.96413 18.5038 9.12834 16.0487 9.83699 13.7927Z" fill="white"/>
</mask>
<g mask="url(#mask0_1087_6043)">
</g>
</svg>
