<svg width="24" height="24" viewBox="0 0 24 24" fill="none" xmlns="http://www.w3.org/2000/svg">
<path fill-rule="evenodd" clip-rule="evenodd" d="M12.0006 12C13.3822 12 14.5021 10.88 14.5021 9.49845C14.5021 8.11687 13.3822 6.99689 12.0006 6.99689C10.619 6.99689 9.49902 8.11687 9.49902 9.49845C9.49902 10.88 10.619 12 12.0006 12Z" stroke="#515151" stroke-width="1.5"/>
<path fill-rule="evenodd" clip-rule="evenodd" d="M12.0002 4.4953C14.7633 4.4953 17.0033 6.73528 17.0033 9.49843C17.0033 11.7712 13.6185 17.4701 12.4171 19.2812C12.3244 19.4209 12.1679 19.505 12.0002 19.505C11.8325 19.505 11.676 19.4209 11.5833 19.2812C10.3819 17.4701 6.99707 11.7712 6.99707 9.49843C6.99707 6.73528 9.23705 4.4953 12.0002 4.4953Z" stroke="#515151" stroke-width="1.5"/>
</svg>
