<svg width="32" height="32" viewBox="0 0 32 32" fill="none" xmlns="http://www.w3.org/2000/svg">
<path fill-rule="evenodd" clip-rule="evenodd" d="M24.3198 14.5629L10.4768 0.57485C9.67089 -0.191617 8.4383 -0.191617 7.67978 0.57485C6.92126 1.34132 6.92126 2.58683 7.67978 3.4012L20.1479 16L7.67978 28.5988C6.92126 29.3653 6.92126 30.6587 7.67978 31.4251C8.4383 32.1916 9.67089 32.1916 10.4768 31.4251L24.3198 17.3892C25.0783 16.6228 25.0783 15.3772 24.3198 14.5629Z" fill="white"/>
<mask id="mask0_1119_5522" style="mask-type:alpha" maskUnits="userSpaceOnUse" x="7" y="0" width="18" height="32">
<path fill-rule="evenodd" clip-rule="evenodd" d="M24.3198 14.5629L10.4768 0.57485C9.67089 -0.191617 8.4383 -0.191617 7.67978 0.57485C6.92126 1.34132 6.92126 2.58683 7.67978 3.4012L20.1479 16L7.67978 28.5988C6.92126 29.3653 6.92126 30.6587 7.67978 31.4251C8.4383 32.1916 9.67089 32.1916 10.4768 31.4251L24.3198 17.3892C25.0783 16.6228 25.0783 15.3772 24.3198 14.5629Z" fill="white"/>
</mask>
<g mask="url(#mask0_1119_5522)">
<rect width="35.5556" height="35.5556" transform="matrix(-1 0 0 1 33.8682 -1.77778)" fill="#FF6200"/>
</g>
</svg>
