<svg width="24" height="24" viewBox="0 0 24 24" fill="none" xmlns="http://www.w3.org/2000/svg">
<path fill-rule="evenodd" clip-rule="evenodd" d="M19.3379 6.99687C19.3379 6.26003 18.7406 5.6627 18.0038 5.6627H16.8364C16.7443 5.6627 16.6696 5.58804 16.6696 5.49593V4.66208C16.6696 4.29366 16.3709 3.995 16.0025 3.995C15.6341 3.995 15.3354 4.29366 15.3354 4.66208V5.49593C15.3354 5.58804 15.2608 5.6627 15.1687 5.6627H12.8339C12.7418 5.6627 12.6671 5.58804 12.6671 5.49593V4.66208C12.6671 4.29366 12.3684 3.995 12 3.995C11.6316 3.995 11.3329 4.29366 11.3329 4.66208V5.49593C11.3329 5.58804 11.2583 5.6627 11.1662 5.6627H8.83138C8.73928 5.6627 8.66461 5.58804 8.66461 5.49593V4.66208C8.66461 4.29366 8.36595 3.995 7.99753 3.995C7.62911 3.995 7.33044 4.29366 7.33044 4.66208V5.49593C7.33044 5.58804 7.25578 5.6627 7.16367 5.6627H5.99628C5.25944 5.6627 4.66211 6.26003 4.66211 6.99687V18.6708C4.66211 19.4077 5.25944 20.005 5.99628 20.005H18.0038C18.7406 20.005 19.3379 19.4077 19.3379 18.6708V6.99687ZM16.3361 10.9994C16.3361 10.6309 16.0374 10.3323 15.669 10.3323H8.33107C7.96265 10.3323 7.66398 10.6309 7.66398 10.9994C7.66398 11.3678 7.96265 11.6665 8.33107 11.6665H15.669C16.0374 11.6665 16.3361 11.3678 16.3361 10.9994ZM16.3361 13.6677C16.3361 13.2993 16.0374 13.0006 15.669 13.0006H8.33107C7.96265 13.0006 7.66398 13.2993 7.66398 13.6677C7.66398 14.0361 7.96265 14.3348 8.33107 14.3348H15.669C16.0374 14.3348 16.3361 14.0361 16.3361 13.6677ZM8.33107 15.669H13.6677C14.0362 15.669 14.3348 15.9676 14.3348 16.336C14.3348 16.7045 14.0362 17.0031 13.6677 17.0031H8.33107C7.96265 17.0031 7.66398 16.7045 7.66398 16.336C7.66398 15.9676 7.96265 15.669 8.33107 15.669ZM17.837 18.6708C17.9291 18.6708 18.0038 18.5962 18.0038 18.5041L18.0011 7.16364C18.0011 7.07154 17.9264 6.99687 17.8343 6.99687H16.8337C16.742 6.99687 16.6676 7.07124 16.6676 7.16297V7.66395C16.6676 8.03237 16.3689 8.33104 16.0005 8.33104C15.6321 8.33104 15.3334 8.03237 15.3334 7.66395V7.16364C15.3334 7.07154 15.2588 6.99687 15.1667 6.99687H12.8319C12.7405 6.99687 12.6664 7.07094 12.6664 7.16231V7.66395C12.6664 8.03237 12.3678 8.33104 11.9994 8.33104C11.6309 8.33104 11.3323 8.03237 11.3323 7.66395V7.16364C11.3323 7.07154 11.2576 6.99687 11.1655 6.99687H8.83071C8.73898 6.99687 8.66461 7.07124 8.66461 7.16297V7.66395C8.66461 8.03237 8.36595 8.33104 7.99753 8.33104C7.62911 8.33104 7.33044 8.03237 7.33044 7.66395V7.16364C7.33044 7.07154 7.25578 6.99687 7.16367 6.99687H6.16305C6.07094 6.99687 5.99628 7.07154 5.99628 7.16364V18.5041C5.99628 18.5962 6.07094 18.6708 6.16305 18.6708H17.837Z" fill="#5E6871"/>
<mask id="mask0_1112_4847" style="mask-type:alpha" maskUnits="userSpaceOnUse" x="4" y="3" width="16" height="18">
<path fill-rule="evenodd" clip-rule="evenodd" d="M19.3379 6.99687C19.3379 6.26003 18.7406 5.6627 18.0038 5.6627H16.8364C16.7443 5.6627 16.6696 5.58804 16.6696 5.49593V4.66208C16.6696 4.29366 16.3709 3.995 16.0025 3.995C15.6341 3.995 15.3354 4.29366 15.3354 4.66208V5.49593C15.3354 5.58804 15.2608 5.6627 15.1687 5.6627H12.8339C12.7418 5.6627 12.6671 5.58804 12.6671 5.49593V4.66208C12.6671 4.29366 12.3684 3.995 12 3.995C11.6316 3.995 11.3329 4.29366 11.3329 4.66208V5.49593C11.3329 5.58804 11.2583 5.6627 11.1662 5.6627H8.83138C8.73928 5.6627 8.66461 5.58804 8.66461 5.49593V4.66208C8.66461 4.29366 8.36595 3.995 7.99753 3.995C7.62911 3.995 7.33044 4.29366 7.33044 4.66208V5.49593C7.33044 5.58804 7.25578 5.6627 7.16367 5.6627H5.99628C5.25944 5.6627 4.66211 6.26003 4.66211 6.99687V18.6708C4.66211 19.4077 5.25944 20.005 5.99628 20.005H18.0038C18.7406 20.005 19.3379 19.4077 19.3379 18.6708V6.99687ZM16.3361 10.9994C16.3361 10.6309 16.0374 10.3323 15.669 10.3323H8.33107C7.96265 10.3323 7.66398 10.6309 7.66398 10.9994C7.66398 11.3678 7.96265 11.6665 8.33107 11.6665H15.669C16.0374 11.6665 16.3361 11.3678 16.3361 10.9994ZM16.3361 13.6677C16.3361 13.2993 16.0374 13.0006 15.669 13.0006H8.33107C7.96265 13.0006 7.66398 13.2993 7.66398 13.6677C7.66398 14.0361 7.96265 14.3348 8.33107 14.3348H15.669C16.0374 14.3348 16.3361 14.0361 16.3361 13.6677ZM8.33107 15.669H13.6677C14.0362 15.669 14.3348 15.9676 14.3348 16.336C14.3348 16.7045 14.0362 17.0031 13.6677 17.0031H8.33107C7.96265 17.0031 7.66398 16.7045 7.66398 16.336C7.66398 15.9676 7.96265 15.669 8.33107 15.669ZM17.837 18.6708C17.9291 18.6708 18.0038 18.5962 18.0038 18.5041L18.0011 7.16364C18.0011 7.07154 17.9264 6.99687 17.8343 6.99687H16.8337C16.742 6.99687 16.6676 7.07124 16.6676 7.16297V7.66395C16.6676 8.03237 16.3689 8.33104 16.0005 8.33104C15.6321 8.33104 15.3334 8.03237 15.3334 7.66395V7.16364C15.3334 7.07154 15.2588 6.99687 15.1667 6.99687H12.8319C12.7405 6.99687 12.6664 7.07094 12.6664 7.16231V7.66395C12.6664 8.03237 12.3678 8.33104 11.9994 8.33104C11.6309 8.33104 11.3323 8.03237 11.3323 7.66395V7.16364C11.3323 7.07154 11.2576 6.99687 11.1655 6.99687H8.83071C8.73898 6.99687 8.66461 7.07124 8.66461 7.16297V7.66395C8.66461 8.03237 8.36595 8.33104 7.99753 8.33104C7.62911 8.33104 7.33044 8.03237 7.33044 7.66395V7.16364C7.33044 7.07154 7.25578 6.99687 7.16367 6.99687H6.16305C6.07094 6.99687 5.99628 7.07154 5.99628 7.16364V18.5041C5.99628 18.5962 6.07094 18.6708 6.16305 18.6708H17.837Z" fill="white"/>
</mask>
<g mask="url(#mask0_1112_4847)">
</g>
</svg>
