<svg width="32" height="32" viewBox="0 0 32 32" fill="none" xmlns="http://www.w3.org/2000/svg">
<path fill-rule="evenodd" clip-rule="evenodd" d="M7.68022 14.5629L21.5232 0.57485C22.3291 -0.191617 23.5617 -0.191617 24.3202 0.57485C25.0787 1.34132 25.0787 2.58683 24.3202 3.4012L11.8521 16L24.3202 28.5988C25.0787 29.3653 25.0787 30.6587 24.3202 31.4251C23.5617 32.1916 22.3291 32.1916 21.5232 31.4251L7.68022 17.3892C6.9217 16.6228 6.9217 15.3772 7.68022 14.5629Z" fill="white"/>
<mask id="mask0_1119_5521" style="mask-type:alpha" maskUnits="userSpaceOnUse" x="7" y="0" width="18" height="32">
<path fill-rule="evenodd" clip-rule="evenodd" d="M7.68022 14.5629L21.5232 0.57485C22.3291 -0.191617 23.5617 -0.191617 24.3202 0.57485C25.0787 1.34132 25.0787 2.58683 24.3202 3.4012L11.8521 16L24.3202 28.5988C25.0787 29.3653 25.0787 30.6587 24.3202 31.4251C23.5617 32.1916 22.3291 32.1916 21.5232 31.4251L7.68022 17.3892C6.9217 16.6228 6.9217 15.3772 7.68022 14.5629Z" fill="white"/>
</mask>
<g mask="url(#mask0_1119_5521)">
<rect x="-1.86816" y="-1.77778" width="35.5556" height="35.5556" fill="#FF6200"/>
</g>
</svg>
