<svg width="21" height="22" viewBox="0 0 21 22" fill="none" xmlns="http://www.w3.org/2000/svg">
<path d="M6.29736 10.7193C6.29691 10.3486 6.45616 9.99553 6.73444 9.75049L12.9835 4.2529C13.4141 3.89151 14.0546 3.94004 14.4259 4.36219C14.7972 4.78435 14.7636 5.42572 14.3502 5.80675L8.88562 10.614C8.85528 10.6406 8.83787 10.679 8.83787 10.7193C8.83787 10.7597 8.85528 10.7981 8.88562 10.8247L14.3502 15.6319C14.6378 15.8733 14.7722 16.2515 14.7012 16.6203C14.6303 16.989 14.3652 17.2904 14.0085 17.4078C13.6519 17.5252 13.2596 17.4403 12.9835 17.1858L6.73668 11.6899C6.45773 11.4444 6.29772 11.0909 6.29736 10.7193Z" fill="#8E8E93"/>
<mask id="mask0_285_28822" style="mask-type:alpha" maskUnits="userSpaceOnUse" x="6" y="4" width="9" height="14">
<path d="M6.29736 10.7193C6.29691 10.3486 6.45616 9.99553 6.73444 9.75049L12.9835 4.2529C13.4141 3.89151 14.0546 3.94004 14.4259 4.36219C14.7972 4.78435 14.7636 5.42572 14.3502 5.80675L8.88562 10.614C8.85528 10.6406 8.83787 10.679 8.83787 10.7193C8.83787 10.7597 8.85528 10.7981 8.88562 10.8247L14.3502 15.6319C14.6378 15.8733 14.7722 16.2515 14.7012 16.6203C14.6303 16.989 14.3652 17.2904 14.0085 17.4078C13.6519 17.5252 13.2596 17.4403 12.9835 17.1858L6.73668 11.6899C6.45773 11.4444 6.29772 11.0909 6.29736 10.7193Z" fill="white"/>
</mask>
<g mask="url(#mask0_285_28822)">
</g>
</svg>
