<svg width="24" height="24" viewBox="0 0 24 24" fill="none" xmlns="http://www.w3.org/2000/svg">
<path d="M17.0033 12.0001C17.0038 12.4415 16.8142 12.8618 16.4829 13.1535L9.04363 19.6982C8.53091 20.1285 7.76852 20.0707 7.32648 19.5681C6.88445 19.0656 6.92447 18.302 7.41661 17.8484L13.922 12.1255C13.9581 12.0938 13.9788 12.0481 13.9788 12.0001C13.9788 11.9521 13.9581 11.9063 13.922 11.8747L7.41661 6.15177C6.92447 5.69817 6.88445 4.93463 7.32648 4.43207C7.76852 3.9295 8.53091 3.87173 9.04363 4.30195L16.4803 10.8447C16.8124 11.1369 17.0028 11.5578 17.0033 12.0001Z" fill="#8E8E93"/>
</svg>
