<svg width="181" height="140" viewBox="0 0 181 140" fill="none" xmlns="http://www.w3.org/2000/svg">
<path d="M159.082 17.3369H22.2341C21.3971 17.3369 20.5944 17.6694 20.0025 18.2613C19.4106 18.8531 19.0781 19.6559 19.0781 20.4929V107.678C19.0783 108.515 19.4108 109.318 20.0027 109.909C20.5945 110.501 21.3972 110.833 22.2341 110.833H159.082C159.496 110.834 159.907 110.752 160.29 110.594C160.673 110.435 161.021 110.203 161.314 109.91C161.607 109.617 161.839 109.269 161.998 108.886C162.157 108.503 162.238 108.093 162.238 107.678V20.4929C162.238 20.0784 162.157 19.668 161.998 19.285C161.839 18.9021 161.607 18.5541 161.314 18.2611C161.021 17.968 160.673 17.7356 160.29 17.577C159.907 17.4184 159.496 17.3368 159.082 17.3369V17.3369Z" fill="#FEB85F"/>
<path d="M21.2607 103.737C21.2608 104.121 21.3367 104.502 21.484 104.857C21.6312 105.212 21.8471 105.534 22.1191 105.806C22.3912 106.077 22.7141 106.293 23.0695 106.439C23.4248 106.586 23.8057 106.662 24.1901 106.661H157.089C157.474 106.661 157.854 106.586 158.209 106.439C158.564 106.292 158.887 106.076 159.159 105.805C159.431 105.533 159.646 105.211 159.793 104.856C159.94 104.501 160.016 104.121 160.016 103.737V28.1865H21.2607V103.737Z" fill="#F8F9FB"/>
<path d="M157.09 19.9678H24.1901C23.8056 19.9673 23.4247 20.0429 23.0693 20.1903C22.7139 20.3376 22.391 20.5538 22.1189 20.8265C21.8469 21.0992 21.631 21.423 21.4838 21.7794C21.3365 22.1359 21.2607 22.5179 21.2607 22.9038V28.1879H160.016V22.9038C160.016 22.5182 159.94 22.1363 159.793 21.7801C159.646 21.4238 159.431 21.1001 159.159 20.8275C158.887 20.5549 158.564 20.3386 158.209 20.1911C157.854 20.0436 157.474 19.9677 157.09 19.9678V19.9678Z" fill="#F0F0F0"/>
<path d="M63.927 39.75H32.3838V88.3752H63.927V39.75Z" fill="#BCD6EC"/>
<path d="M46.7391 43.5322H35.9434V45.9435H46.7391V43.5322Z" fill="#BEBEBE"/>
<path d="M44.0539 48.1338H35.9434V50.545H44.0539V48.1338Z" fill="#BEBEBE"/>
<path d="M50.0271 52.7393H35.9434V55.1505H50.0271V52.7393Z" fill="#BEBEBE"/>
<path d="M106.396 39.75H74.8525V88.3752H106.396V39.75Z" fill="#FFD5BB"/>
<path d="M148.869 39.75H117.326V88.3752H148.869V39.75Z" fill="#C0EBED"/>
<path d="M37.6516 22.3242C37.3091 22.3242 36.9743 22.4258 36.6896 22.6161C36.4048 22.8063 36.1828 23.0768 36.0517 23.3932C35.9207 23.7097 35.8864 24.0578 35.9532 24.3938C36.02 24.7297 36.185 25.0382 36.4271 25.2804C36.6693 25.5226 36.9779 25.6875 37.3138 25.7543C37.6497 25.8212 37.9979 25.7869 38.3143 25.6558C38.6307 25.5247 38.9012 25.3028 39.0915 25.018C39.2818 24.7332 39.3833 24.3984 39.3833 24.0559C39.3833 23.5966 39.2009 23.1562 38.8761 22.8314C38.5514 22.5067 38.1109 22.3242 37.6516 22.3242V22.3242Z" fill="#32D74B"/>
<path d="M32.8176 22.3242C32.4751 22.3242 32.1403 22.4258 31.8556 22.6161C31.5708 22.8063 31.3488 23.0768 31.2178 23.3932C31.0867 23.7097 31.0524 24.0578 31.1192 24.3938C31.186 24.7297 31.351 25.0382 31.5932 25.2804C31.8353 25.5226 32.1439 25.6875 32.4798 25.7543C32.8157 25.8212 33.1639 25.7869 33.4803 25.6558C33.7968 25.5247 34.0672 25.3028 34.2575 25.018C34.4478 24.7332 34.5494 24.3984 34.5494 24.0559C34.5494 23.5966 34.3669 23.1562 34.0421 22.8314C33.7174 22.5067 33.2769 22.3242 32.8176 22.3242V22.3242Z" fill="#FFCC00"/>
<path d="M27.9768 22.3242C27.6343 22.3242 27.2995 22.4258 27.0147 22.6161C26.73 22.8063 26.508 23.0768 26.3769 23.3932C26.2459 23.7097 26.2116 24.0578 26.2784 24.3938C26.3452 24.7297 26.5101 25.0382 26.7523 25.2804C26.9945 25.5226 27.3031 25.6875 27.639 25.7543C27.9749 25.8212 28.3231 25.7869 28.6395 25.6558C28.9559 25.5247 29.2264 25.3028 29.4167 25.018C29.607 24.7332 29.7085 24.3984 29.7085 24.0559C29.7085 23.5966 29.5261 23.1562 29.2013 22.8314C28.8766 22.5067 28.4361 22.3242 27.9768 22.3242V22.3242Z" fill="#FF3B30"/>
<path d="M146.208 94.1123H138.914C138.561 94.1122 138.212 94.1815 137.887 94.3165C137.561 94.4514 137.265 94.6492 137.016 94.8986C136.767 95.148 136.569 95.4441 136.435 95.77C136.3 96.0958 136.231 96.445 136.231 96.7975V101.797C136.231 102.509 136.514 103.192 137.018 103.696C137.522 104.199 138.205 104.482 138.917 104.482H146.211C146.923 104.482 147.606 104.199 148.11 103.696C148.614 103.192 148.896 102.509 148.896 101.797V96.797C148.896 96.4442 148.827 96.0948 148.692 95.7689C148.556 95.443 148.358 95.1469 148.109 94.8976C147.859 94.6483 147.563 94.4506 147.237 94.3159C146.911 94.1811 146.561 94.1119 146.208 94.1123V94.1123Z" fill="#FFBE96"/>
<path d="M138.984 99.1286L140.514 97.7657L140.514 96.6582L138.012 99.1292L140.515 101.936L140.514 100.683L138.984 99.1286Z" fill="#FFE3C5"/>
<path d="M144.607 97.7663L146.138 99.1286L144.608 100.683V101.937L147.11 99.1286L144.607 96.6582V97.7663Z" fill="#FFE3C5"/>
<path d="M19.0648 110.827L5.3125 119.376H175.359L162.219 110.827H19.0648Z" fill="#D7D7D7"/>
<path d="M5.64062 120.631C5.64062 120.898 5.80091 121.162 6.11232 121.409C6.42373 121.655 6.88017 121.88 7.45558 122.068C8.03099 122.257 8.7141 122.407 9.46589 122.509C10.2177 122.611 11.0234 122.664 11.8372 122.664H169.491C170.304 122.664 171.11 122.611 171.862 122.509C172.614 122.407 173.297 122.257 173.872 122.068C174.448 121.88 174.904 121.655 175.215 121.409C175.527 121.162 175.687 120.898 175.687 120.631V119.376H5.64062V120.631Z" fill="#D0D0D0"/>
<path d="M78.1768 120.979C78.1768 121.142 78.2089 121.304 78.2713 121.455C78.3338 121.605 78.4253 121.742 78.5407 121.858C78.656 121.973 78.793 122.064 78.9437 122.127C79.0944 122.189 79.256 122.221 79.4191 122.221H101.942C102.105 122.221 102.267 122.189 102.418 122.127C102.569 122.065 102.706 121.973 102.821 121.858C102.936 121.742 103.028 121.606 103.09 121.455C103.153 121.304 103.185 121.143 103.185 120.979V119.484H78.1768V120.979Z" fill="#E1E0DF"/>
<path d="M89.1024 43.5322H78.3066V45.9435H89.1024V43.5322Z" fill="#BEBEBE"/>
<path d="M86.4171 48.1338H78.3066V50.545H86.4171V48.1338Z" fill="#BEBEBE"/>
<path d="M92.3904 52.7393H78.3066V55.1505H92.3904V52.7393Z" fill="#BEBEBE"/>
<path d="M131.573 43.5322H120.777V45.9435H131.573V43.5322Z" fill="#BEBEBE"/>
<path d="M128.888 48.1338H120.777V50.545H128.888V48.1338Z" fill="#BEBEBE"/>
<path d="M134.861 52.7393H120.777V55.1505H134.861V52.7393Z" fill="#BEBEBE"/>
</svg>
