<svg width="181" height="140" viewBox="0 0 181 140" fill="none" xmlns="http://www.w3.org/2000/svg">
<path d="M89.9854 6.52344V70.5142H153.977C153.977 53.4207 147.32 37.3522 135.234 25.2655C123.148 13.1788 107.079 6.52344 89.9854 6.52344Z" fill="#EF9337"/>
<path d="M91.0135 6.52344V70.5142H27.0234C27.0234 53.4207 33.6795 37.3522 45.7655 25.2655C57.8516 13.1788 73.9201 6.52344 91.0135 6.52344Z" fill="#FEB85F"/>
<path d="M91.0135 133.476V69.4854H27.0234C27.0234 86.5788 33.6795 102.648 45.7655 114.734C57.8516 126.82 73.9201 133.476 91.0135 133.476Z" fill="#EF9337"/>
<path d="M89.9854 133.476V69.4854H153.977C153.977 86.5788 147.32 102.648 135.234 114.734C123.148 126.82 107.079 133.476 89.9854 133.476Z" fill="#FEB85F"/>
<circle cx="90.8362" cy="70.3362" r="60.4104" fill="white"/>
<path d="M81.1962 40.1917C80.2532 40.1896 79.315 40.3273 78.4123 40.6004C77.2723 37.8351 74.4409 35.877 71.127 35.877C67.4436 35.877 64.3558 38.2969 63.5259 41.555C62.8687 41.3077 62.1721 41.1813 61.4699 41.1821C58.4034 41.1821 55.918 43.5442 55.918 46.459H89.0179C89.0179 42.9983 85.5158 40.1917 81.1962 40.1917Z" fill="#F8F1ED"/>
<path d="M121.04 95.7147C121.04 95.7147 119.001 94.461 119.068 94.0605C119.135 93.6601 120.453 94.7174 120.453 94.7174C120.453 94.7174 118.991 92.305 119.433 91.9135C119.876 91.522 121.04 95.7147 121.04 95.7147Z" fill="#54B1B5"/>
<path d="M136.237 105.574L136.3 105.606H111.437C110.929 105.111 110.67 104.592 110.862 104.078C111.678 101.888 114.794 101.779 114.794 101.779C114.794 101.779 113.186 100.638 113.718 100.42C114.251 100.201 115.451 100.976 115.451 100.976C115.451 100.976 114.202 95.0703 115.944 94.27C117.686 93.4698 121.466 96.608 121.466 96.608C121.466 96.608 120.841 90.8472 123.603 90.7866C126.365 90.7259 129.954 97.189 131.285 97.9596C132.616 98.7302 134.837 93.07 136.894 94.9034C138.952 96.7369 136.193 99.2574 136.652 100.819C137.111 102.381 140.485 101.828 139.995 103.82C139.505 105.812 136.237 105.574 136.237 105.574Z" fill="#61C8CB"/>
<path d="M135.975 105.608C135.86 105.477 135.752 105.339 135.653 105.195C135.653 105.195 137.3 104.161 138.231 105.608H135.975Z" fill="#54B1B5"/>
<path d="M131.412 99.7933C131.412 99.7933 129.84 98.6815 131.513 96.7109C131.513 96.7109 133.25 98.3548 131.412 99.7933Z" fill="#54B1B5"/>
<path d="M132.524 98.106C132.524 98.106 131.803 96.8922 133.511 96.0713C133.511 96.0713 134.184 97.6903 132.524 98.106Z" fill="#54B1B5"/>
<path d="M118.558 94.8937C118.558 94.8937 117.179 95.2066 116.926 93.3291C116.926 93.3291 118.673 93.1864 118.558 94.8937Z" fill="#54B1B5"/>
<path d="M135.813 104.695C135.813 104.695 135.462 103.327 137.333 103.021C137.334 103.021 137.523 104.764 135.813 104.695Z" fill="#54B1B5"/>
<path d="M111.806 100.927C111.806 100.927 112.919 100.059 113.949 101.649C113.949 101.649 112.427 102.521 111.806 100.927Z" fill="#FFE3C5"/>
<path d="M114.885 100.402C114.885 100.402 113.479 100.275 113.816 98.4102C113.816 98.4102 115.522 98.8134 114.885 100.402Z" fill="#54B1B5"/>
<path d="M113.159 100.3C113.159 100.3 112.414 100.681 111.992 99.64C111.992 99.64 112.976 99.3022 113.159 100.3Z" fill="#54B1B5"/>
<path d="M53.4677 95.7147C53.4677 95.7147 51.4289 94.461 51.4957 94.0605C51.5626 93.6601 52.8805 94.7174 52.8805 94.7174C52.8805 94.7174 51.4185 92.305 51.861 91.9135C52.3035 91.522 53.4677 95.7147 53.4677 95.7147Z" fill="#53B1B5"/>
<path d="M68.6607 105.574L68.7234 105.607H43.8601C43.3528 105.111 43.0943 104.592 43.2859 104.079C44.102 101.888 47.2195 101.779 47.2195 101.779C47.2195 101.779 45.6108 100.638 46.1436 100.42C46.6764 100.201 47.8763 100.976 47.8763 100.976C47.8763 100.976 46.6274 95.0703 48.3692 94.27C50.1109 93.4698 53.8914 96.608 53.8914 96.608C53.8914 96.608 53.2663 90.8472 56.0281 90.7866C58.7899 90.7259 62.3796 97.189 63.7105 97.9596C65.0414 98.7302 67.2615 93.07 69.3196 94.9035C71.3777 96.7369 68.618 99.2575 69.0763 100.819C69.5347 102.381 72.9092 101.828 72.4199 103.82C71.9305 105.812 68.6607 105.574 68.6607 105.574Z" fill="#61C8CB"/>
<path d="M68.4059 105.608C68.2902 105.477 68.1827 105.339 68.084 105.195C68.084 105.195 69.7299 104.161 70.6618 105.608H68.4059Z" fill="#FFE3C5"/>
<path d="M63.8403 99.7933C63.8403 99.7933 62.2674 98.6815 63.9402 96.7109C63.9402 96.7109 65.6785 98.3548 63.8403 99.7933Z" fill="#53B1B5"/>
<path d="M64.9554 98.106C64.9554 98.106 64.2331 96.8922 65.941 96.0713C65.941 96.0713 66.6172 97.6903 64.9554 98.106Z" fill="#FFE3C5"/>
<path d="M50.9889 94.8937C50.9889 94.8937 49.6104 95.2066 49.3574 93.3291C49.3574 93.3291 51.1067 93.1864 50.9889 94.8937Z" fill="#53B1B5"/>
<path d="M68.2371 104.695C68.2371 104.695 67.8863 103.327 69.7535 103.021C69.7569 103.021 69.9471 104.764 68.2371 104.695Z" fill="#FFE3C5"/>
<path d="M44.2363 100.927C44.2363 100.927 45.3495 100.059 46.3792 101.649C46.3792 101.649 44.858 102.521 44.2363 100.927Z" fill="#53B1B5"/>
<path d="M47.316 100.402C47.316 100.402 45.91 100.275 46.2463 98.4102C46.2442 98.4102 47.9508 98.8134 47.316 100.402Z" fill="#53B1B5"/>
<path d="M45.5875 100.3C45.5875 100.3 44.8417 100.681 44.4199 99.64C44.4206 99.64 45.4035 99.3022 45.5875 100.3Z" fill="#53B1B5"/>
<path d="M112.039 63.3813V104.778H64.4658V63.1387L89.192 37.0898L102.094 51.5972L112.039 63.3813Z" fill="#FFDEB4"/>
<path d="M113.548 100.788H62.6592V105.553H113.548V100.788Z" fill="#FCCC97"/>
<path d="M75.695 82.5117H68.8018V96.5931H75.695V82.5117Z" fill="#FCCC97"/>
<path d="M70.1084 82.5117H68.8574V96.5931H70.1084V82.5117Z" fill="#EF9337"/>
<path d="M72.2514 82.6865H71.915V96.5977H72.2514V82.6865Z" fill="#E04D2B"/>
<path d="M68.5859 82.2539V96.8474H75.9127V82.2539H68.5859ZM75.4784 96.3353H69.0195V82.7653H75.4784V96.3353Z" fill="#E04D2B"/>
<path d="M76.5409 96.4873H68.0459V97.4702H76.5409V96.4873Z" fill="white"/>
<path d="M76.5369 97.6338H68.0432C67.9999 97.6338 67.9584 97.6166 67.9277 97.586C67.8971 97.5553 67.8799 97.5138 67.8799 97.4704V96.4876C67.8799 96.4442 67.8971 96.4027 67.9277 96.3721C67.9584 96.3414 67.9999 96.3242 68.0432 96.3242H76.5369C76.5803 96.3242 76.6219 96.3414 76.6526 96.372C76.6834 96.4026 76.7007 96.4442 76.7009 96.4876V97.4704C76.7007 97.5138 76.6834 97.5554 76.6526 97.586C76.6219 97.6166 76.5803 97.6338 76.5369 97.6338ZM68.2052 97.3064H76.3735V96.6509H68.2066L68.2052 97.3064Z" fill="black"/>
<path d="M76.5409 96.8506H68.0459V97.1601H76.5409V96.8506Z" fill="white"/>
<path d="M76.5389 96.6865H68.0432C67.953 96.6865 67.8799 96.7597 67.8799 96.8499V97.1593C67.8799 97.2496 67.953 97.3227 68.0432 97.3227H76.5389C76.6292 97.3227 76.7023 97.2496 76.7023 97.1593V96.8499C76.7023 96.7597 76.6292 96.6865 76.5389 96.6865Z" fill="black"/>
<path d="M77.0595 96.4873H67.4658V96.8512H77.0595V96.4873Z" fill="white"/>
<path d="M77.0588 97.0148H67.4651C67.4218 97.0148 67.3802 96.9976 67.3496 96.967C67.319 96.9364 67.3018 96.8948 67.3018 96.8515V96.4876C67.3018 96.4442 67.319 96.4027 67.3496 96.3721C67.3802 96.3414 67.4218 96.3242 67.4651 96.3242H77.0588C77.1021 96.3242 77.1437 96.3414 77.1743 96.3721C77.2049 96.4027 77.2221 96.4442 77.2221 96.4876V96.8515C77.2221 96.8948 77.2049 96.9364 77.1743 96.967C77.1437 96.9976 77.1021 97.0148 77.0588 97.0148ZM67.6285 96.6881H76.8954V96.6509H67.6285V96.6881Z" fill="black"/>
<path d="M108.916 82.5117H102.022V96.5931H108.916V82.5117Z" fill="#FCCC97"/>
<path d="M103.402 82.5117H102.078V96.5931H103.402V82.5117Z" fill="#EF9337"/>
<path d="M105.471 82.6865H105.135V96.5977H105.471V82.6865Z" fill="#E04D2B"/>
<path d="M101.805 82.2539V96.8474H109.132V82.2539H101.805ZM108.697 96.3353H102.238V82.7653H108.697V96.3353Z" fill="#E04D2B"/>
<path d="M109.762 96.4873H101.267V97.4702H109.762V96.4873Z" fill="white"/>
<path d="M109.761 97.6338H101.265C101.222 97.6338 101.18 97.6166 101.149 97.586C101.119 97.5553 101.102 97.5138 101.102 97.4704V96.4876C101.102 96.4442 101.119 96.4027 101.149 96.3721C101.18 96.3414 101.222 96.3242 101.265 96.3242H109.761C109.805 96.3242 109.846 96.3414 109.877 96.3721C109.907 96.4027 109.925 96.4442 109.925 96.4876V97.4704C109.925 97.5138 109.907 97.5553 109.877 97.586C109.846 97.6166 109.805 97.6338 109.761 97.6338ZM101.43 97.3064H109.597V96.6509H101.43V97.3064Z" fill="black"/>
<path d="M109.762 96.8506H101.267V97.1601H109.762V96.8506Z" fill="white"/>
<path d="M109.761 96.6865H101.265C101.175 96.6865 101.102 96.7597 101.102 96.8499V97.1593C101.102 97.2496 101.175 97.3227 101.265 97.3227H109.761C109.851 97.3227 109.924 97.2496 109.924 97.1593V96.8499C109.924 96.7597 109.851 96.6865 109.761 96.6865Z" fill="black"/>
<path d="M110.277 96.4873H100.684V96.8512H110.277V96.4873Z" fill="white"/>
<path d="M110.277 97.0148H100.683C100.64 97.0148 100.598 96.9976 100.567 96.967C100.537 96.9364 100.52 96.8948 100.52 96.8515V96.4876C100.52 96.4442 100.537 96.4027 100.567 96.3721C100.598 96.3414 100.64 96.3242 100.683 96.3242H110.277C110.32 96.3242 110.362 96.3414 110.392 96.372C110.423 96.4026 110.44 96.4442 110.441 96.4876V96.8515C110.44 96.8949 110.423 96.9364 110.392 96.9671C110.362 96.9977 110.32 97.0148 110.277 97.0148ZM100.847 96.6881H110.113V96.6509H100.847V96.6881Z" fill="black"/>
<path d="M73.2324 75.8937V63.7091C73.2615 62.5311 73.75 61.4111 74.5934 60.5882C75.4369 59.7653 76.5686 59.3047 77.747 59.3047C78.9254 59.3047 80.0571 59.7653 80.9006 60.5882C81.7441 61.4111 82.2325 62.5311 82.2616 63.7091V75.8937H73.2324Z" fill="white"/>
<path d="M73.2336 75.8894L73.1977 73.477L73.1681 71.0647L73.1529 69.8598L73.1433 68.655L73.1253 66.2427L73.1074 63.8337V63.6793V63.5291C73.1074 63.4795 73.1074 63.4278 73.1143 63.3754L73.1253 63.2182C73.1458 63.0125 73.1794 62.8083 73.226 62.6069C73.2473 62.5055 73.279 62.407 73.3059 62.307C73.3328 62.2071 73.3686 62.1099 73.4086 62.0141C73.4826 61.8207 73.5697 61.6326 73.6692 61.451C74.0708 60.7204 74.6592 60.1096 75.3744 59.681C76.0922 59.2522 76.9125 59.025 77.7486 59.0234C78.5848 59.0219 79.4059 59.2459 80.1254 59.672C81.0313 60.2033 81.7303 61.026 82.1083 62.0058C82.1483 62.1016 82.1773 62.2016 82.2124 62.2995C82.2476 62.3973 82.2724 62.4986 82.2937 62.6007C82.3423 62.8031 82.3775 63.0085 82.3992 63.2155C82.4061 63.3189 82.4185 63.4222 82.4192 63.5263L82.4233 63.6821V63.8337V66.2427L82.4054 71.0619L82.3703 75.8811C82.3702 75.8947 82.3674 75.9081 82.3621 75.9207C82.3568 75.9332 82.3491 75.9445 82.3395 75.9541C82.3298 75.9636 82.3184 75.9711 82.3058 75.9762C82.2932 75.9813 82.2798 75.9839 82.2662 75.9838L80.0082 75.9666C79.2555 75.9625 78.5029 75.9508 77.7502 75.9418L75.4922 75.9142C74.7382 75.9156 73.9855 75.9011 73.2336 75.8894ZM73.2336 75.8894C73.9862 75.877 74.7389 75.8625 75.4915 75.855L77.7495 75.8267C78.5022 75.8184 79.2548 75.806 80.0075 75.8026L82.2655 75.7853L82.1614 75.8894L82.1263 71.0702L82.1083 66.2509L82.1049 63.842V63.6917L82.1008 63.5463C82.1008 63.4491 82.0877 63.3533 82.0815 63.2568C82.0606 63.0642 82.0272 62.8731 81.9815 62.6847C81.9615 62.5903 81.9305 62.498 81.905 62.4049C81.8795 62.3119 81.845 62.2209 81.8071 62.1292C81.7374 61.9487 81.6551 61.7732 81.5611 61.604C81.1839 60.9223 80.6326 60.3529 79.9634 59.9539C79.2935 59.5559 78.5288 59.3454 77.7495 59.3446C76.9685 59.3437 76.2014 59.5517 75.5278 59.947C74.8543 60.3423 74.2987 60.9106 73.9187 61.593C73.5376 62.2794 73.3447 63.0543 73.3597 63.8392L73.3418 66.2482L73.3238 68.6606L73.3142 69.8654L73.299 71.0702L73.2694 73.4825L73.2336 75.8894Z" fill="black"/>
<path d="M73.2324 75.8937V63.7091C73.2615 62.5311 73.75 61.4111 74.5934 60.5882C75.4369 59.7653 76.5686 59.3047 77.747 59.3047C78.9254 59.3047 80.0571 59.7653 80.9006 60.5882C81.7441 61.4111 82.2325 62.5311 82.2616 63.7091V75.8937H73.2324Z" fill="#FCCC97"/>
<path d="M78.332 59.2337C77.6946 59.1455 77.0456 59.1956 76.4292 59.3804C75.8128 59.5653 75.2434 59.8805 74.7596 60.3048C74.2758 60.7291 73.889 61.2525 73.6253 61.8395C73.3617 62.4265 73.2274 63.0634 73.2315 63.7069V75.8915H74.4033V63.7069C74.4052 62.6119 74.8046 61.5548 75.5272 60.7321C76.2497 59.9094 77.2464 59.3769 78.332 59.2337Z" fill="#EF9337"/>
<path d="M82.0325 64.9653H77.744V59.4492H77.3436V64.9653H73.2715V65.2899H77.3436V75.8899H77.744V65.2899H82.0325V64.9653Z" fill="#E04D2B"/>
<path d="M77.7458 58.9336C77.1188 58.9335 76.4979 59.0569 75.9185 59.2968C75.3392 59.5367 74.8128 59.8884 74.3693 60.3317C73.9259 60.7751 73.5742 61.3015 73.3342 61.8808C73.0942 62.4601 72.9707 63.081 72.9707 63.708V76.1525H82.5217V63.708C82.5216 63.081 82.398 62.46 82.1579 61.8807C81.9178 61.3014 81.566 60.7751 81.1226 60.3317C80.6791 59.8884 80.1526 59.5367 79.5732 59.2968C78.9939 59.0569 78.3729 58.9335 77.7458 58.9336ZM82.0026 75.6335H73.4897V63.7094C73.504 62.5899 73.9587 61.5211 74.7554 60.7345C75.5521 59.9478 76.6266 59.5068 77.7462 59.5068C78.8658 59.5068 79.9403 59.9478 80.737 60.7345C81.5337 61.5211 81.9884 62.5899 82.0026 63.7094V75.6335Z" fill="#E04D2B"/>
<path d="M94.1221 75.8937V63.7091C94.1512 62.5311 94.6396 61.4111 95.4831 60.5882C96.3265 59.7653 97.4583 59.3047 98.6367 59.3047C99.8151 59.3047 100.947 59.7653 101.79 60.5882C102.634 61.4111 103.122 62.5311 103.151 63.7091V75.8937H94.1221Z" fill="white"/>
<path d="M94.1227 75.8928L94.0862 73.4804L94.0565 71.0681L94.0455 69.8667L94.0358 68.6619L94.0179 66.2495L94 63.8406V63.6862V63.5359C94 63.4863 94.0034 63.4346 94.0069 63.3822L94.0186 63.2251C94.0391 63.0193 94.0727 62.8151 94.1192 62.6137C94.1399 62.5124 94.1723 62.4138 94.1992 62.3139C94.2261 62.2139 94.2619 62.1168 94.3019 62.0209C94.3756 61.8274 94.4627 61.6393 94.5624 61.4578C94.9638 60.7271 95.5524 60.1162 96.2676 59.6878C96.9855 59.259 97.8057 59.0319 98.6419 59.0303C99.4781 59.0287 100.299 59.2528 101.019 59.6789C101.74 60.1047 102.335 60.7149 102.742 61.4468C102.842 61.6293 102.93 61.8184 103.004 62.0127C103.045 62.1085 103.073 62.2084 103.108 62.3063C103.144 62.4042 103.169 62.5055 103.19 62.6075C103.239 62.8099 103.274 63.0153 103.296 63.2223C103.303 63.3257 103.315 63.4291 103.316 63.5332L103.32 63.6889V63.8406L103.317 66.2495L103.299 71.0687L103.264 75.888C103.263 75.9016 103.261 75.915 103.255 75.9275C103.25 75.94 103.242 75.9513 103.233 75.9609C103.223 75.9704 103.212 75.978 103.199 75.9831C103.186 75.9882 103.173 75.9908 103.159 75.9907L100.902 75.9734C100.149 75.9693 99.3968 75.9576 98.6442 75.9486L96.3862 75.9211C95.6308 75.919 94.8726 75.9045 94.1227 75.8928ZM94.1227 75.8928C94.8754 75.8804 95.628 75.8659 96.3807 75.8583L98.6386 75.8301C99.3913 75.8218 100.144 75.8094 100.897 75.806L103.154 75.7887L103.05 75.8928L103.015 71.0736L102.997 66.2543L102.994 63.8454V63.6951L102.991 63.5497C102.991 63.4525 102.977 63.3567 102.971 63.2602C102.95 63.0676 102.917 62.8765 102.871 62.6881C102.851 62.5937 102.82 62.5014 102.795 62.4083C102.769 62.3153 102.735 62.2243 102.697 62.1326C102.627 61.9522 102.545 61.7768 102.451 61.6074C102.074 60.9258 101.522 60.3565 100.853 59.9573C100.182 59.5599 99.4174 59.3495 98.6377 59.348C97.858 59.3466 97.0922 59.5541 96.4199 59.9491C95.7446 60.3464 95.1874 60.9166 94.8059 61.601C94.4243 62.2855 94.2323 63.0593 94.2495 63.8426L94.2316 66.2516L94.2137 68.6639L94.204 69.8688L94.1889 71.0736L94.1592 73.4859L94.1227 75.8928Z" fill="black"/>
<path d="M94.1221 75.8937V63.7091C94.1512 62.5311 94.6396 61.4111 95.4831 60.5882C96.3265 59.7653 97.4583 59.3047 98.6367 59.3047C99.8151 59.3047 100.947 59.7653 101.79 60.5882C102.634 61.4111 103.122 62.5311 103.151 63.7091V75.8937H94.1221Z" fill="#FCCC97"/>
<path d="M99.2226 59.2337C98.5852 59.1455 97.9362 59.1956 97.3198 59.3804C96.7035 59.5653 96.1341 59.8805 95.6503 60.3048C95.1665 60.7291 94.7796 61.2525 94.5159 61.8395C94.2523 62.4265 94.118 63.0634 94.1222 63.7069V75.8915H95.2898V63.7069C95.2918 62.6113 95.6918 61.5537 96.4152 60.7309C97.1386 59.9081 98.1363 59.376 99.2226 59.2337Z" fill="#EF9337"/>
<path d="M102.93 64.9653H98.6415V59.4492H98.241V64.9653H94.1689V65.2899H98.241V75.8899H98.6415V65.2899H102.93V64.9653Z" fill="#E04D2B"/>
<path d="M98.6403 58.9336C98.0133 58.9335 97.3924 59.0569 96.813 59.2968C96.2337 59.5367 95.7073 59.8884 95.2639 60.3317C94.8205 60.7751 94.4687 61.3015 94.2287 61.8808C93.9887 62.4601 93.8652 63.081 93.8652 63.708V76.1525H103.416V63.708C103.416 63.081 103.292 62.46 103.052 61.8807C102.812 61.3014 102.461 60.7751 102.017 60.3317C101.574 59.8884 101.047 59.5367 100.468 59.2968C99.8884 59.0569 99.2674 58.9335 98.6403 58.9336ZM102.896 75.6335H94.3842V63.7094C94.3842 62.5806 94.8326 61.4981 95.6308 60.6999C96.429 59.9017 97.5116 59.4533 98.6403 59.4533C99.7691 59.4533 100.852 59.9017 101.65 60.6999C102.448 61.4981 102.896 62.5806 102.896 63.7094V75.6335Z" fill="#E04D2B"/>
<path d="M96.4844 77.5596H82.4375V100.739H96.4844V77.5596Z" fill="#EF9337"/>
<path d="M95.3452 78.7529H83.5811V80.8793V100.741H85.1698V80.8793H95.3452V78.7529Z" fill="#98210D"/>
<path d="M95.3437 78.7529H85.1035V100.741H95.3437V78.7529Z" fill="#E04D2B"/>
<path d="M96.7524 100.59H82.2588V100.954H96.7524V100.59Z" fill="#98210D"/>
<path d="M96.1878 100.953H82.7529V102.177H96.1878V100.953Z" fill="#E04D2B"/>
<path d="M97.647 102.179H81.3662V102.543H97.647V102.179Z" fill="#98210D"/>
<path d="M97.0101 102.542H81.9189V103.766H97.0101V102.542Z" fill="#E04D2B"/>
<path d="M98.2707 103.767H80.2041V104.175H98.2707V103.767Z" fill="#98210D"/>
<path d="M97.5697 104.176H80.8223V105.554H97.5697V104.176Z" fill="#E04D2B"/>
<path d="M93.7402 79.7412H84.7393V92.613H93.7402V79.7412Z" fill="#FFDDB3"/>
<path d="M84.541 79.5449V92.8178H93.9382V79.5449H84.541ZM93.5412 84.0126H89.4629V79.9419H93.5412V84.0126ZM89.4629 84.4338H93.5412V87.8835H89.4629V84.4338ZM88.9915 79.9419V84.0126H84.938V79.9419H88.9915ZM88.9915 87.8835H84.938V84.4338H88.9915V87.8835ZM84.938 88.306H88.9915V92.4174H84.938V88.306ZM89.4629 92.4174V88.306H93.5412V92.4174H89.4629Z" fill="#FFF3E3"/>
<path d="M63.2942 69.4224L61.2637 65.364L89.1914 35.2031L114.879 65.5329L113.045 69.8862L89.1914 40.9418L63.2942 69.4224Z" fill="#FF904A"/>
<path d="M123.878 105.551H55.458V106.26H123.878V105.551Z" fill="#E04D2B"/>
<path d="M125.988 42.8979C124.795 42.8964 123.611 43.1094 122.493 43.5265C121.062 39.2725 117.507 36.2598 113.346 36.2598C108.722 36.2598 104.844 39.9817 103.802 44.996C102.994 44.6191 102.113 44.4234 101.221 44.4226C97.3709 44.4226 94.25 48.0563 94.25 52.5406H135.812C135.808 47.2161 131.412 42.8979 125.988 42.8979Z" fill="#F8F1ED"/>
</svg>
