<svg width="181" height="140" viewBox="0 0 181 140" fill="none" xmlns="http://www.w3.org/2000/svg">
<path d="M156.891 10.7373H80.0402C75.4568 10.7373 71.7412 14.4529 71.7412 19.0363V76.226C71.7412 80.8094 75.4568 84.5249 80.0402 84.5249H156.891C161.475 84.5249 165.19 80.8094 165.19 76.226V19.0363C165.19 14.4529 161.475 10.7373 156.891 10.7373Z" fill="#EF9337"/>
<path d="M157.969 13.8086H78.9649C76.6732 13.8086 74.8154 15.6664 74.8154 17.9581V76.0779C74.8154 78.3696 76.6732 80.2274 78.9649 80.2274H157.969C160.26 80.2274 162.118 78.3696 162.118 76.0779V17.9581C162.118 15.6664 160.26 13.8086 157.969 13.8086Z" fill="white"/>
<path d="M71.7693 71.0107H71.1143V85.1536H82.8119V84.3463H71.7693V71.0107Z" fill="#FF6200"/>
<path d="M82.8125 70.3806H153.527V23.0283H82.8125V70.3806ZM83.8084 24.0257H152.529V69.3843H83.8084V24.0257Z" fill="#CCC9C8"/>
<path d="M153.527 58.0889H82.8125V59.3115H153.527V58.0889Z" fill="#CCC9C8"/>
<path d="M153.527 46.3906H82.8125V47.6463H153.527V46.3906Z" fill="#CCC9C8"/>
<path d="M153.527 34.7285H82.8125V35.9511H153.527V34.7285Z" fill="#CCC9C8"/>
<path d="M153.527 23.6562H152.305V70.3807H153.527V23.6562Z" fill="#CCC9C8"/>
<path d="M139.384 23.6562H138.756V70.3807H139.384V23.6562Z" fill="#CCC9C8"/>
<path d="M125.242 23.6562H124.614V70.3807H125.242V23.6562Z" fill="#CCC9C8"/>
<path d="M111.693 23.6562H110.471V70.3807H111.693V23.6562Z" fill="#CCC9C8"/>
<path d="M97.5508 23.6562H96.9561V70.3807H97.5508V23.6562Z" fill="#CCC9C8"/>
<path d="M144.746 33.1145C143.14 34.0387 142.623 36.1223 142.246 37.6432L142.238 37.6789C141.563 40.3987 141.072 43.1806 140.681 45.5423C140.626 45.8801 140.579 46.2246 140.532 46.5718C140.37 47.7861 140.201 49.0399 139.563 50.0375C139.075 50.7988 138.026 51.4455 137.118 51.2096C135.645 50.8257 135.601 49.4781 135.704 47.4641C135.735 46.8471 135.765 46.2641 135.708 45.7469C135.497 43.8272 134.982 42.6069 134.133 42.0101C133.592 41.6295 132.944 41.5231 132.208 41.6937C130.552 42.0776 129.535 43.825 129.257 46.7462L128.59 53.7979C128.548 54.2427 128.524 54.7045 128.498 55.1937C128.413 56.8013 128.326 58.4637 127.603 59.6703C127.182 60.3729 126.628 60.7601 126.002 60.7897C125.297 60.8238 124.539 60.3888 123.977 59.6275C122.559 57.7079 122.345 55.0396 122.414 53.1419L122.425 52.8463C122.528 50.1895 122.682 46.1741 119.334 44.9565C117.699 44.3609 116.078 45.0114 115.398 46.5471C115.032 47.3698 114.936 48.3362 114.846 49.2702C114.698 50.761 114.559 52.1689 113.393 52.9214C113.221 53.0377 113.026 53.1142 112.821 53.1454C112.616 53.1765 112.407 53.1614 112.208 53.1013C111.663 52.9444 111.159 52.4909 110.893 51.9161C110.324 50.688 110.376 48.9274 110.421 47.3736C110.434 46.9513 110.446 46.5509 110.445 46.1725C110.442 44.0702 109.806 42.6239 108.554 41.873C106.878 40.8688 104.711 41.6536 103.522 42.9042C102.304 44.1848 101.76 45.8977 101.28 47.4087L98.181 57.166C97.2912 59.967 96.291 62.4417 93.8451 61.9503C92.3713 61.6547 92.0379 60.5205 91.6648 58.6869C91.3391 57.0892 90.9709 55.2782 88.8722 55.0999C86.6985 54.914 83.7603 57.4583 82.8125 58.4571L83.5417 59.141C84.7814 57.8373 87.3062 55.9676 88.7856 56.0927C90.0706 56.2023 90.3433 57.2247 90.6811 58.8844C91.0068 60.4859 91.4131 62.479 93.6453 62.9271C93.9161 62.9826 94.1918 63.0111 94.4683 63.0121C97.374 63.0121 98.4636 59.582 99.142 57.4446L102.233 47.7087C102.68 46.2997 103.188 44.7031 104.248 43.5886C105.168 42.6222 106.808 41.992 108.033 42.7259C108.965 43.2842 109.438 44.4443 109.439 46.1741C109.439 46.5383 109.429 46.9299 109.417 47.3451C109.368 49.0081 109.313 50.8926 109.98 52.3323C110.37 53.1748 111.098 53.8198 111.927 54.0584C112.263 54.1588 112.618 54.1838 112.966 54.1316C113.313 54.0794 113.645 53.9514 113.936 53.7567C115.506 52.7432 115.683 50.9502 115.841 49.369C115.93 48.4739 116.013 47.6287 116.314 46.9508C116.779 45.9087 117.854 45.482 118.989 45.895C121.65 46.8635 121.519 50.3014 121.422 52.8117L121.411 53.109C121.335 55.1646 121.577 58.0666 123.167 60.2199C123.94 61.2664 124.992 61.8406 126.048 61.788C127.014 61.7419 127.87 61.172 128.464 60.1831C129.314 58.7648 129.413 56.8973 129.499 55.2469C129.524 54.7686 129.548 54.3145 129.588 53.8922L130.255 46.8405C130.388 45.4392 130.848 43.0336 132.436 42.665C132.887 42.5597 133.253 42.6102 133.553 42.8241C133.961 43.1109 134.491 43.8695 134.712 45.8566C134.76 46.2953 134.733 46.8383 134.703 47.4148C134.614 49.1633 134.492 51.5579 136.866 52.1744C138.281 52.5424 139.719 51.6479 140.409 50.5745C141.168 49.3925 141.35 48.0258 141.527 46.7039C141.572 46.3672 141.617 46.0326 141.671 45.7052C142.057 43.3621 142.545 40.6044 143.211 37.9169L143.221 37.8813C143.573 36.4591 144.012 34.6886 145.249 33.9762C145.928 33.5862 147.445 33.0438 147.938 32.8885C149.138 32.5079 152.899 32.017 152.899 32.017V31.0254C152.899 31.0254 149.028 31.5739 147.777 31.9271C147.144 32.1053 145.959 32.4163 144.746 33.1145Z" fill="#FF6200"/>
<path d="M125.539 58.7178C125.115 58.7178 124.699 58.8438 124.346 59.0798C123.993 59.3158 123.718 59.6513 123.555 60.0438C123.392 60.4363 123.35 60.8682 123.433 61.2849C123.516 61.7015 123.72 62.0842 124.021 62.3846C124.321 62.685 124.704 62.8895 125.121 62.9723C125.537 63.0551 125.969 63.0125 126.362 62.8499C126.754 62.6872 127.09 62.4118 127.326 62.0586C127.562 61.7053 127.687 61.2899 127.687 60.8651C127.687 60.5831 127.632 60.3038 127.524 60.0432C127.416 59.7827 127.258 59.5459 127.058 59.3465C126.859 59.1471 126.622 58.989 126.361 58.8811C126.101 58.7732 125.822 58.7177 125.539 58.7178Z" fill="white"/>
<path d="M125.539 58.0889C124.99 58.0889 124.454 58.2333 123.997 58.5038C123.541 58.7743 123.185 59.1588 122.975 59.6087C122.765 60.0586 122.71 60.5536 122.817 61.0311C122.924 61.5087 123.189 61.9473 123.577 62.2916C123.965 62.6359 124.46 62.8703 124.998 62.9652C125.537 63.0601 126.095 63.0113 126.602 62.8249C127.109 62.6385 127.543 62.3229 127.848 61.918C128.153 61.5131 128.315 61.037 128.315 60.5501C128.314 59.8975 128.021 59.2719 127.501 58.8105C126.981 58.3491 126.275 58.0896 125.539 58.0889ZM125.539 62.4279C125.121 62.4279 124.711 62.3178 124.363 62.1115C124.015 61.9051 123.744 61.6119 123.583 61.2687C123.423 60.9256 123.381 60.548 123.463 60.1838C123.545 59.8195 123.746 59.4849 124.042 59.2223C124.338 58.9597 124.716 58.7809 125.126 58.7084C125.537 58.636 125.963 58.6731 126.35 58.8153C126.736 58.9574 127.067 59.1981 127.3 59.5069C127.532 59.8157 127.657 60.1787 127.657 60.5501C127.656 61.048 127.433 61.5253 127.036 61.8773C126.639 62.2293 126.101 62.4274 125.539 62.4279Z" fill="#C6A088"/>
<path d="M152.601 28.583C152.176 28.583 151.761 28.7274 151.408 28.9979C151.054 29.2684 150.779 29.6529 150.617 30.1027C150.454 30.5525 150.412 31.0475 150.494 31.5251C150.577 32.0026 150.782 32.4413 151.082 32.7855C151.383 33.1298 151.765 33.3643 152.182 33.4593C152.599 33.5543 153.03 33.5055 153.423 33.3192C153.815 33.1329 154.151 32.8173 154.387 32.4125C154.623 32.0077 154.749 31.5317 154.749 31.0448C154.749 30.3919 154.523 29.7657 154.12 29.3041C153.717 28.8424 153.171 28.583 152.601 28.583Z" fill="white"/>
<path d="M152.602 28.583C152.053 28.583 151.516 28.7274 151.06 28.9979C150.603 29.2684 150.248 29.6529 150.037 30.1027C149.827 30.5525 149.772 31.0475 149.88 31.5251C149.987 32.0026 150.251 32.4413 150.639 32.7855C151.027 33.1298 151.522 33.3643 152.06 33.4593C152.599 33.5543 153.157 33.5055 153.664 33.3192C154.171 33.1329 154.605 32.8173 154.91 32.4125C155.215 32.0077 155.378 31.5317 155.378 31.0448C155.377 30.3921 155.084 29.7664 154.564 29.3048C154.043 28.8433 153.338 28.5837 152.602 28.583ZM152.602 32.9225C152.183 32.9225 151.774 32.8123 151.426 32.606C151.078 32.3997 150.806 32.1065 150.646 31.7634C150.486 31.4203 150.444 31.0427 150.525 30.6785C150.607 30.3142 150.809 29.9797 151.105 29.7171C151.401 29.4545 151.778 29.2757 152.189 29.2032C152.6 29.1308 153.025 29.1679 153.412 29.3101C153.799 29.4522 154.13 29.6928 154.362 30.0016C154.595 30.3104 154.719 30.6734 154.719 31.0448C154.718 31.5426 154.495 32.0199 154.098 32.3719C153.701 32.7239 153.163 32.9219 152.602 32.9225Z" fill="#C6A088"/>
<path d="M100.894 55.2705H24.1085C19.5251 55.2705 15.8096 58.9861 15.8096 63.5695V120.963C15.8096 125.546 19.5251 129.262 24.1085 129.262H100.894C105.478 129.262 109.193 125.546 109.193 120.963V63.5695C109.193 58.9861 105.478 55.2705 100.894 55.2705Z" fill="#FEB85F"/>
<path d="M102.075 58.5312H22.6339C20.3422 58.5312 18.4844 60.389 18.4844 62.6807V120.956C18.4844 123.248 20.3422 125.106 22.6339 125.106H102.075C104.366 125.106 106.224 123.248 106.224 120.956V62.6807C106.224 60.389 104.366 58.5312 102.075 58.5312Z" fill="white"/>
<path d="M52.1223 64.4727H24.6201V66.6954H52.1223V64.4727Z" fill="#CCC9C8"/>
<path d="M68.987 64.4727H56.4688V66.6954H68.987V64.4727Z" fill="#CCC9C8"/>
<path d="M69.2905 69.3545H24.6201V71.5773H69.2905V69.3545Z" fill="#CCC9C8"/>
<path d="M90.7155 64.4727H83.2871V71.901H90.7155V64.4727Z" fill="#CCC9C8"/>
<path d="M52.1223 81.5459H24.6201V83.7687H52.1223V81.5459Z" fill="#CCC9C8"/>
<path d="M68.987 81.5459H56.4688V83.7687H68.987V81.5459Z" fill="#CCC9C8"/>
<path d="M69.2905 86.4297H24.6201V88.6525H69.2905V86.4297Z" fill="#CCC9C8"/>
<path d="M90.7155 81.5459H83.2871V88.9743H90.7155V81.5459Z" fill="#CCC9C8"/>
<path d="M52.1223 104.234H24.6201V106.457H52.1223V104.234Z" fill="#CCC9C8"/>
<path d="M68.987 104.234H56.4688V106.457H68.987V104.234Z" fill="#CCC9C8"/>
<path d="M69.2905 109.117H24.6201V111.34H69.2905V109.117Z" fill="#CCC9C8"/>
<path d="M90.7155 104.234H83.2871V111.663H90.7155V104.234Z" fill="#CCC9C8"/>
<path d="M79.1133 101.764C79.1133 101.764 83.8827 102.412 87.5007 110.365C97.3682 95.6194 100.658 91.2988 100.658 91.2988L87.5553 105.751C87.5553 105.751 81.5826 100.452 79.1133 101.764Z" fill="#FF6200"/>
<path d="M79.1133 80.9552C79.1133 80.9552 83.8827 81.6032 87.5007 89.5567C97.3682 74.8108 100.658 70.4902 100.658 70.4902L87.5553 84.9425C87.5553 84.9425 81.5826 79.6434 79.1133 80.9552Z" fill="#FF6200"/>
<path d="M94.4785 93.7432C94.9597 93.9425 95.8709 94.526 96.4497 96.1838C97.2682 98.5178 96.0098 98.7177 95.3817 98.5588C95.3817 98.5588 96.0895 98.83 96.5501 98.5127C97.0106 98.1954 97.1889 96.9357 96.4959 95.4728C95.9959 94.4143 94.9937 93.9299 94.4785 93.7432Z" fill="white"/>
<path d="M94.7453 94.0922C94.4867 94.0007 94.2229 93.9222 93.9549 93.857C93.7743 93.8034 93.5886 93.7656 93.4002 93.7441C93.366 93.7401 93.3315 93.7487 93.3043 93.768C93.2771 93.7872 93.2593 93.8155 93.2549 93.8467C93.2506 93.8779 93.26 93.9094 93.2811 93.9343C93.3022 93.9591 93.3332 93.9753 93.3674 93.9793C93.3732 93.9793 93.5471 94.0064 93.8183 94.0699C94.4863 94.2515 95.7638 94.7831 96.5742 96.2818C96.993 97.0579 97.06 97.6276 96.7727 97.9757C96.4216 98.4014 95.6053 98.3961 95.1782 98.3285C95.1615 98.3251 95.1442 98.3247 95.1274 98.3273C95.1105 98.33 95.0944 98.3357 95.0799 98.344C95.0654 98.3524 95.0529 98.3632 95.043 98.376C95.0331 98.3888 95.0261 98.4032 95.0223 98.4185C95.0186 98.4337 95.0181 98.4495 95.0211 98.4649C95.024 98.4803 95.0302 98.495 95.0393 98.5082C95.0485 98.5214 95.0604 98.5329 95.0744 98.5419C95.0884 98.5509 95.1042 98.5573 95.1209 98.5607C95.4158 98.6289 95.7186 98.6642 96.0228 98.666C96.3211 98.6738 96.6176 98.6208 96.8905 98.5108C97.1714 98.3861 97.3808 98.1304 97.4819 97.7911C97.6752 97.139 97.4504 96.3053 96.8641 95.5033C96.3301 94.7707 95.4172 94.3309 94.7453 94.0922ZM97.2288 97.7258C97.154 97.9757 97.0123 98.1662 96.8255 98.2685C96.8823 98.2239 96.9336 98.1738 96.9788 98.1192C97.3299 97.6935 97.2719 97.0397 96.8055 96.1789C96.5399 95.6776 96.1809 95.2222 95.7445 94.833C96.099 95.0448 96.4052 95.3171 96.6464 95.635C97.4188 96.6898 97.3112 97.4471 97.2288 97.7258Z" fill="black"/>
<path d="M83.1768 102.005L88.6951 101.075L84.8394 96.4863L83.1768 102.005Z" fill="#47C5C9"/>
<path d="M83.6707 100.221L83.1104 102.071L84.9608 101.761C84.4563 101.518 83.9049 101.064 83.6707 100.221Z" fill="#033347"/>
<path d="M117.121 69.4836L85.0229 96.2768C84.3366 96.8849 84.6613 98.4074 85.7479 99.6832C86.8344 100.959 88.2712 101.504 88.957 100.899L122.291 75.5611C123.192 74.7656 122.765 72.7606 121.337 71.0834C119.909 69.4062 118.02 68.6881 117.121 69.4836Z" fill="#033347"/>
<path d="M116.923 71.9249L84.8744 98.2216L84.9939 98.5033L117.097 72.1378L116.923 71.9249Z" fill="#CCC9C8"/>
<path d="M119.966 75.2998L86.1006 100.059L86.2992 100.237L120.129 75.5221L119.966 75.2998Z" fill="#CCC9C8"/>
<path d="M117.05 69.4714L110.537 74.7446C110.279 75.6851 110.787 77.1281 111.911 78.3823C113.189 79.8099 114.832 80.509 115.825 80.1246L122.285 75.3156C123.197 74.5505 122.765 72.6221 121.32 71.009C119.874 69.3959 117.961 68.7063 117.05 69.4714Z" fill="#5CCBB8"/>
<path d="M117.103 69.3755L112.501 73.1439C112.079 74.0739 112.571 75.6717 113.788 77.0458C115.018 78.436 116.586 79.1413 117.584 78.8383L122.318 75.271C123.227 74.4992 122.797 72.5539 121.356 70.9266C119.915 69.2994 118.01 68.6037 117.103 69.3755Z" fill="#CCC9C8"/>
<path d="M117.092 69.4864C116.186 70.2877 116.615 72.3079 118.05 73.9968C119.484 75.6857 121.382 76.4074 122.289 75.6061C123.195 74.8048 122.765 72.7851 121.331 71.0957C119.896 69.4062 117.996 68.6851 117.092 69.4864Z" fill="#269FA3"/>
<path d="M97.3193 82.1504C97.3193 82.1504 100.161 89.3987 102.052 91.5553C102.052 91.5553 102.843 95.1957 104.115 92.2509C105.042 90.1031 104.11 82.7523 104.11 82.7523L97.3193 82.1504Z" fill="#E6A08E"/>
<path d="M128.517 100.502C125.016 100.004 123.791 94.175 123.791 94.175C121.928 81.7757 119.622 76.2672 118.385 74.7075C118.385 74.7075 114.661 72.6263 113.23 72.5211C111.8 72.4159 109.686 73.633 109.686 73.633C106.836 73.3461 104.454 74.528 104.454 74.528C102.272 75.2153 98.7393 76.8268 98.7393 76.8268C96.7473 76.9562 91.7169 74.7081 91.7169 74.7081C89.9909 75.4472 88.0908 78.669 88.0908 78.669L94.3246 82.6806C94.3246 82.6806 103.375 85.6656 105.732 88.943C108.089 92.2204 107.471 96.5509 106.819 97.2773C106.165 98.012 104.115 98.8937 104.115 98.8937C104.115 98.8937 103.194 99.3525 102.463 98.0803C98.855 91.8019 92.3601 93.5351 91.6293 94.2455C90.8985 94.956 90.8544 96.7046 91.5219 97.2581C92.1894 97.8115 95.7692 98.2494 97.5608 99.8283C99.3523 101.407 104.188 107.463 104.734 107.952C105.28 108.441 107.035 110.705 107.948 110.621C108.774 110.55 112.339 110.997 118.112 111.272C118.651 111.293 119.234 111.327 119.85 111.375C126.981 111.916 157.854 123.968 157.854 123.968V100.778C153.566 100.471 128.517 100.502 128.517 100.502Z" fill="#F5BAAB"/>
<path d="M91.714 74.709C91.714 74.709 88.571 76.175 88.0918 78.6671C88.0918 78.6671 89.8432 82.5482 89.9985 85.9435C90.0502 87.0813 86.998 92.6625 86.998 92.6625H88.9075C88.9075 92.6625 90.9964 93.2088 93.6041 88.8073C93.6041 88.8073 95.6749 80.7621 93.6344 75.496L91.714 74.709Z" fill="#F5BAAB"/>
<path d="M107.069 96.8096C107.069 96.8096 105.394 98.3396 103.729 98.8958C103.729 98.8958 108.686 100.198 109.85 99.6239C109.85 99.6239 108.221 95.3832 107.261 92.6846C107.263 92.6829 107.532 95.9593 107.069 96.8096Z" fill="#E6A08E"/>
<path d="M94.2954 84.7384C94.2954 84.7384 94.4204 83.757 94.4909 82.7734L90.6357 80.3066L94.2954 84.7384Z" fill="#E6A08E"/>
<path d="M91.714 74.709C91.714 74.709 88.734 76.0071 88.0918 78.6671C88.0918 78.6671 92.3237 80.5777 94.5321 80.9736C97.7325 81.5486 98.8554 78.1952 98.8554 78.1952L98.7678 77.1537C98.7678 77.1537 94.7508 76.2015 91.714 74.709Z" fill="#F5BAAB"/>
<path d="M102.462 98.0787C98.8544 91.8003 92.5612 93.8325 91.6288 94.2439C88.456 95.6439 90.8577 96.6997 91.5214 97.2565C92.185 97.8133 95.7687 98.2478 97.5602 99.8268C99.3518 101.406 104.187 107.461 104.734 107.95L108.366 99.7849C108.366 99.7849 103.193 99.3509 102.462 98.0787Z" fill="#F5BAAB"/>
<path d="M94.0449 93.9971C94.6364 94.1711 95.7566 94.6805 96.4682 96.1279C97.0602 97.3279 96.4076 97.8677 95.6134 98.0797C96.0259 98.0367 96.417 97.9695 96.624 97.8699C97.1891 97.5945 97.3769 96.7838 96.5249 95.5072C95.9103 94.5831 94.6783 94.1601 94.0449 93.9971Z" fill="#C64020"/>
</svg>
