<svg width="15" height="15" viewBox="0 0 15 15" fill="none" xmlns="http://www.w3.org/2000/svg">
<path d="M14.18 15C14.4067 15 14.6 14.92 14.76 14.76C14.92 14.6 15 14.4067 15 14.18V11.24C15 11.0133 14.92 10.82 14.76 10.66C14.6 10.5 14.4067 10.42 14.18 10.42C13.0867 10.42 12.1 10.2667 11.22 9.96C11.0733 9.89333 10.92 9.88 10.76 9.92C10.6 9.96 10.4667 10.04 10.36 10.16L8.52 12C7.34667 11.3867 6.28667 10.6067 5.34 9.66C4.39333 8.71333 3.61333 7.65333 3 6.48L4.84 4.64C4.96 4.53333 5.03333 4.4 5.06 4.24C5.08667 4.08 5.08 3.92667 5.04 3.78C4.73333 2.9 4.58 1.91333 4.58 0.82C4.58 0.593333 4.5 0.4 4.34 0.24C4.18 0.08 3.98667 0 3.76 0H0.82C0.593333 0 0.4 0.08 0.24 0.24C0.08 0.4 0 0.593333 0 0.82C0 2.74 0.373333 4.58 1.12 6.34C1.84 8.03333 2.85333 9.53333 4.16 10.84C5.46667 12.1467 6.96667 13.16 8.66 13.88C10.42 14.6267 12.26 15 14.18 15Z" fill="white"/>
</svg>
